<svg width="298" height="397" viewBox="0 0 298 397" fill="none" xmlns="http://www.w3.org/2000/svg">
<path d="M54.5457 56L49.9537 50.912V56H48.4977V44.848H49.9537V50.016L54.5617 44.848H56.4017L51.3457 50.432L56.4497 56H54.5457Z" fill="#333333"/>
<path d="M57.5318 51.584C57.5318 50.688 57.7131 49.904 58.0758 49.232C58.4385 48.5493 58.9345 48.0213 59.5638 47.648C60.2038 47.2747 60.9131 47.088 61.6918 47.088C62.4598 47.088 63.1265 47.2533 63.6918 47.584C64.2571 47.9147 64.6785 48.3307 64.9558 48.832V47.232H66.4278V56H64.9558V54.368C64.6678 54.88 64.2358 55.3067 63.6598 55.648C63.0945 55.9787 62.4331 56.144 61.6758 56.144C60.8971 56.144 60.1931 55.952 59.5638 55.568C58.9345 55.184 58.4385 54.6453 58.0758 53.952C57.7131 53.2587 57.5318 52.4693 57.5318 51.584ZM64.9558 51.6C64.9558 50.9387 64.8225 50.3627 64.5558 49.872C64.2891 49.3813 63.9265 49.008 63.4678 48.752C63.0198 48.4853 62.5238 48.352 61.9798 48.352C61.4358 48.352 60.9398 48.48 60.4918 48.736C60.0438 48.992 59.6865 49.3653 59.4198 49.856C59.1531 50.3467 59.0198 50.9227 59.0198 51.584C59.0198 52.256 59.1531 52.8427 59.4198 53.344C59.6865 53.8347 60.0438 54.2133 60.4918 54.48C60.9398 54.736 61.4358 54.864 61.9798 54.864C62.5238 54.864 63.0198 54.736 63.4678 54.48C63.9265 54.2133 64.2891 53.8347 64.5558 53.344C64.8225 52.8427 64.9558 52.2613 64.9558 51.6Z" fill="#333333"/>
<path d="M72.7123 56.144C71.891 56.144 71.1443 55.9573 70.4723 55.584C69.811 55.2107 69.2883 54.6827 68.9043 54C68.531 53.3067 68.3443 52.5067 68.3443 51.6C68.3443 50.704 68.5363 49.9147 68.9203 49.232C69.315 48.5387 69.8483 48.0107 70.5203 47.648C71.1923 47.2747 71.9443 47.088 72.7763 47.088C73.6083 47.088 74.3603 47.2747 75.0323 47.648C75.7043 48.0107 76.2323 48.5333 76.6163 49.216C77.011 49.8987 77.2083 50.6933 77.2083 51.6C77.2083 52.5067 77.0056 53.3067 76.6003 54C76.2056 54.6827 75.667 55.2107 74.9843 55.584C74.3016 55.9573 73.5443 56.144 72.7123 56.144ZM72.7123 54.864C73.235 54.864 73.7256 54.7413 74.1843 54.496C74.643 54.2507 75.011 53.8827 75.2883 53.392C75.5763 52.9013 75.7203 52.304 75.7203 51.6C75.7203 50.896 75.5816 50.2987 75.3043 49.808C75.027 49.3173 74.6643 48.9547 74.2163 48.72C73.7683 48.4747 73.283 48.352 72.7603 48.352C72.227 48.352 71.7363 48.4747 71.2883 48.72C70.851 48.9547 70.499 49.3173 70.2323 49.808C69.9656 50.2987 69.8323 50.896 69.8323 51.6C69.8323 52.3147 69.9603 52.9173 70.2163 53.408C70.483 53.8987 70.835 54.2667 71.2723 54.512C71.7096 54.7467 72.1896 54.864 72.7123 54.864Z" fill="#333333"/>
<path d="M80.5787 44.16V56H79.1227V44.16H80.5787Z" fill="#333333"/>
<path d="M83.8122 45.808C83.5349 45.808 83.3002 45.712 83.1082 45.52C82.9162 45.328 82.8202 45.0933 82.8202 44.816C82.8202 44.5387 82.9162 44.304 83.1082 44.112C83.3002 43.92 83.5349 43.824 83.8122 43.824C84.0789 43.824 84.3028 43.92 84.4842 44.112C84.6762 44.304 84.7722 44.5387 84.7722 44.816C84.7722 45.0933 84.6762 45.328 84.4842 45.52C84.3028 45.712 84.0789 45.808 83.8122 45.808ZM84.5162 47.232V56H83.0602V47.232H84.5162Z" fill="#333333"/>
<path d="M91.2697 47.072C92.3363 47.072 93.2003 47.3973 93.8617 48.048C94.523 48.688 94.8537 49.616 94.8537 50.832V56H93.4137V51.04C93.4137 50.1653 93.195 49.4987 92.7577 49.04C92.3203 48.5707 91.723 48.336 90.9657 48.336C90.1977 48.336 89.5843 48.576 89.1257 49.056C88.6777 49.536 88.4537 50.2347 88.4537 51.152V56H86.9977V47.232H88.4537V48.48C88.7417 48.032 89.131 47.6853 89.6217 47.44C90.123 47.1947 90.6723 47.072 91.2697 47.072Z" fill="#333333"/>
<path d="M59.4244 132.112C58.6884 132.112 58.027 131.984 57.4404 131.728C56.8644 131.461 56.411 131.099 56.0804 130.64C55.7497 130.171 55.579 129.632 55.5684 129.024H57.1204C57.1737 129.547 57.387 129.989 57.7604 130.352C58.1444 130.704 58.699 130.88 59.4244 130.88C60.1177 130.88 60.6617 130.709 61.0564 130.368C61.4617 130.016 61.6644 129.568 61.6644 129.024C61.6644 128.597 61.547 128.251 61.3124 127.984C61.0777 127.717 60.7844 127.515 60.4324 127.376C60.0804 127.237 59.6057 127.088 59.0084 126.928C58.2724 126.736 57.6804 126.544 57.2324 126.352C56.795 126.16 56.4164 125.861 56.0964 125.456C55.787 125.04 55.6324 124.485 55.6324 123.792C55.6324 123.184 55.787 122.645 56.0964 122.176C56.4057 121.707 56.8377 121.344 57.3924 121.088C57.9577 120.832 58.603 120.704 59.3284 120.704C60.3737 120.704 61.227 120.965 61.8884 121.488C62.5604 122.011 62.939 122.704 63.0244 123.568H61.4244C61.371 123.141 61.147 122.768 60.7524 122.448C60.3577 122.117 59.835 121.952 59.1844 121.952C58.5764 121.952 58.0804 122.112 57.6964 122.432C57.3124 122.741 57.1204 123.179 57.1204 123.744C57.1204 124.149 57.2324 124.48 57.4564 124.736C57.691 124.992 57.9737 125.189 58.3044 125.328C58.6457 125.456 59.1204 125.605 59.7284 125.776C60.4644 125.979 61.0564 126.181 61.5044 126.384C61.9524 126.576 62.3364 126.88 62.6564 127.296C62.9764 127.701 63.1364 128.256 63.1364 128.96C63.1364 129.504 62.9924 130.016 62.7044 130.496C62.4164 130.976 61.9897 131.365 61.4244 131.664C60.859 131.963 60.1924 132.112 59.4244 132.112Z" fill="#333333"/>
<path d="M66.031 121.808C65.7537 121.808 65.519 121.712 65.327 121.52C65.135 121.328 65.039 121.093 65.039 120.816C65.039 120.539 65.135 120.304 65.327 120.112C65.519 119.92 65.7537 119.824 66.031 119.824C66.2977 119.824 66.5217 119.92 66.703 120.112C66.895 120.304 66.991 120.539 66.991 120.816C66.991 121.093 66.895 121.328 66.703 121.52C66.5217 121.712 66.2977 121.808 66.031 121.808ZM66.735 123.232V132H65.279V123.232H66.735Z" fill="#333333"/>
<path d="M72.4805 130.656L75.2005 123.232H76.7525L73.3125 132H71.6165L68.1765 123.232H69.7445L72.4805 130.656Z" fill="#333333"/>
<path d="M77.6412 127.584C77.6412 126.688 77.8226 125.904 78.1852 125.232C78.5479 124.549 79.0439 124.021 79.6732 123.648C80.3132 123.275 81.0226 123.088 81.8012 123.088C82.5692 123.088 83.2359 123.253 83.8012 123.584C84.3666 123.915 84.7879 124.331 85.0652 124.832V123.232H86.5372V132H85.0652V130.368C84.7772 130.88 84.3452 131.307 83.7692 131.648C83.2039 131.979 82.5426 132.144 81.7852 132.144C81.0066 132.144 80.3026 131.952 79.6732 131.568C79.0439 131.184 78.5479 130.645 78.1852 129.952C77.8226 129.259 77.6412 128.469 77.6412 127.584ZM85.0652 127.6C85.0652 126.939 84.9319 126.363 84.6652 125.872C84.3986 125.381 84.0359 125.008 83.5772 124.752C83.1292 124.485 82.6332 124.352 82.0892 124.352C81.5452 124.352 81.0492 124.48 80.6012 124.736C80.1532 124.992 79.7959 125.365 79.5292 125.856C79.2626 126.347 79.1292 126.923 79.1292 127.584C79.1292 128.256 79.2626 128.843 79.5292 129.344C79.7959 129.835 80.1532 130.213 80.6012 130.48C81.0492 130.736 81.5452 130.864 82.0892 130.864C82.6332 130.864 83.1292 130.736 83.5772 130.48C84.0359 130.213 84.3986 129.835 84.6652 129.344C84.9319 128.843 85.0652 128.261 85.0652 127.6Z" fill="#333333"/>
<path d="M93.8937 132L90.4537 128.128V132H88.9977V120.16H90.4537V127.12L93.8297 123.232H95.8617L91.7337 127.6L95.8777 132H93.8937Z" fill="#333333"/>
<path d="M29.2037 199.416C29.2037 198.328 29.4491 197.352 29.9397 196.488C30.4304 195.613 31.0971 194.931 31.9397 194.44C32.7931 193.949 33.7371 193.704 34.7717 193.704C35.9877 193.704 37.0491 193.997 37.9557 194.584C38.8624 195.171 39.5237 196.003 39.9397 197.08H38.1957C37.8864 196.408 37.4384 195.891 36.8517 195.528C36.2757 195.165 35.5824 194.984 34.7717 194.984C33.9931 194.984 33.2944 195.165 32.6757 195.528C32.0571 195.891 31.5717 196.408 31.2197 197.08C30.8677 197.741 30.6917 198.52 30.6917 199.416C30.6917 200.301 30.8677 201.08 31.2197 201.752C31.5717 202.413 32.0571 202.925 32.6757 203.288C33.2944 203.651 33.9931 203.832 34.7717 203.832C35.5824 203.832 36.2757 203.656 36.8517 203.304C37.4384 202.941 37.8864 202.424 38.1957 201.752H39.9397C39.5237 202.819 38.8624 203.645 37.9557 204.232C37.0491 204.808 35.9877 205.096 34.7717 205.096C33.7371 205.096 32.7931 204.856 31.9397 204.376C31.0971 203.885 30.4304 203.208 29.9397 202.344C29.4491 201.48 29.2037 200.504 29.2037 199.416Z" fill="#333333"/>
<path d="M41.5631 200.584C41.5631 199.688 41.7444 198.904 42.1071 198.232C42.4698 197.549 42.9658 197.021 43.5951 196.648C44.2351 196.275 44.9444 196.088 45.7231 196.088C46.4911 196.088 47.1578 196.253 47.7231 196.584C48.2884 196.915 48.7098 197.331 48.9871 197.832V196.232H50.4591V205H48.9871V203.368C48.6991 203.88 48.2671 204.307 47.6911 204.648C47.1258 204.979 46.4644 205.144 45.7071 205.144C44.9284 205.144 44.2244 204.952 43.5951 204.568C42.9658 204.184 42.4698 203.645 42.1071 202.952C41.7444 202.259 41.5631 201.469 41.5631 200.584ZM48.9871 200.6C48.9871 199.939 48.8538 199.363 48.5871 198.872C48.3204 198.381 47.9578 198.008 47.4991 197.752C47.0511 197.485 46.5551 197.352 46.0111 197.352C45.4671 197.352 44.9711 197.48 44.5231 197.736C44.0751 197.992 43.7178 198.365 43.4511 198.856C43.1844 199.347 43.0511 199.923 43.0511 200.584C43.0511 201.256 43.1844 201.843 43.4511 202.344C43.7178 202.835 44.0751 203.213 44.5231 203.48C44.9711 203.736 45.4671 203.864 46.0111 203.864C46.5551 203.864 47.0511 203.736 47.4991 203.48C47.9578 203.213 48.3204 202.835 48.5871 202.344C48.8538 201.843 48.9871 201.261 48.9871 200.6Z" fill="#333333"/>
<path d="M54.3756 193.16V205H52.9196V193.16H54.3756Z" fill="#333333"/>
<path d="M56.3131 200.6C56.3131 199.693 56.4944 198.904 56.8571 198.232C57.2198 197.549 57.7211 197.021 58.3611 196.648C59.0118 196.275 59.7531 196.088 60.5851 196.088C61.6624 196.088 62.5478 196.349 63.2411 196.872C63.9451 197.395 64.4091 198.12 64.6331 199.048H63.0651C62.9158 198.515 62.6224 198.093 62.1851 197.784C61.7584 197.475 61.2251 197.32 60.5851 197.32C59.7531 197.32 59.0811 197.608 58.5691 198.184C58.0571 198.749 57.8011 199.555 57.8011 200.6C57.8011 201.656 58.0571 202.472 58.5691 203.048C59.0811 203.624 59.7531 203.912 60.5851 203.912C61.2251 203.912 61.7584 203.763 62.1851 203.464C62.6118 203.165 62.9051 202.739 63.0651 202.184H64.6331C64.3984 203.08 63.9291 203.8 63.2251 204.344C62.5211 204.877 61.6411 205.144 60.5851 205.144C59.7531 205.144 59.0118 204.957 58.3611 204.584C57.7211 204.211 57.2198 203.683 56.8571 203C56.4944 202.317 56.3131 201.517 56.3131 200.6Z" fill="#333333"/>
<path d="M67.3279 194.808C67.0505 194.808 66.8159 194.712 66.6239 194.52C66.4319 194.328 66.3359 194.093 66.3359 193.816C66.3359 193.539 66.4319 193.304 66.6239 193.112C66.8159 192.92 67.0505 192.824 67.3279 192.824C67.5945 192.824 67.8185 192.92 67.9999 193.112C68.1919 193.304 68.2879 193.539 68.2879 193.816C68.2879 194.093 68.1919 194.328 67.9999 194.52C67.8185 194.712 67.5945 194.808 67.3279 194.808ZM68.0319 196.232V205H66.5759V196.232H68.0319Z" fill="#333333"/>
<path d="M78.2894 196.232V205H76.8334V203.704C76.556 204.152 76.1667 204.504 75.6654 204.76C75.1747 205.005 74.6307 205.128 74.0334 205.128C73.3507 205.128 72.7374 204.989 72.1934 204.712C71.6494 204.424 71.2174 203.997 70.8974 203.432C70.588 202.867 70.4334 202.179 70.4334 201.368V196.232H71.8734V201.176C71.8734 202.04 72.092 202.707 72.5294 203.176C72.9667 203.635 73.564 203.864 74.3214 203.864C75.1 203.864 75.7134 203.624 76.1614 203.144C76.6094 202.664 76.8334 201.965 76.8334 201.048V196.232H78.2894Z" fill="#333333"/>
<path d="M91.2917 196.072C91.9744 196.072 92.5824 196.216 93.1157 196.504C93.6491 196.781 94.0704 197.203 94.3797 197.768C94.6891 198.333 94.8437 199.021 94.8437 199.832V205H93.4037V200.04C93.4037 199.165 93.1851 198.499 92.7477 198.04C92.3211 197.571 91.7397 197.336 91.0037 197.336C90.2464 197.336 89.6437 197.581 89.1957 198.072C88.7477 198.552 88.5237 199.251 88.5237 200.168V205H87.0837V200.04C87.0837 199.165 86.8651 198.499 86.4277 198.04C86.0011 197.571 85.4197 197.336 84.6837 197.336C83.9264 197.336 83.3237 197.581 82.8757 198.072C82.4277 198.552 82.2037 199.251 82.2037 200.168V205H80.7477V196.232H82.2037V197.496C82.4917 197.037 82.8757 196.685 83.3557 196.44C83.8464 196.195 84.3851 196.072 84.9717 196.072C85.7077 196.072 86.3584 196.237 86.9237 196.568C87.4891 196.899 87.9104 197.384 88.1877 198.024C88.4331 197.405 88.8384 196.925 89.4037 196.584C89.9691 196.243 90.5984 196.072 91.2917 196.072Z" fill="#333333"/>
<path d="M1.81306 279.816H5.71706V281H0.357056V269.848H1.81306V279.816Z" fill="#333333"/>
<path d="M8.01531 270.808C7.73797 270.808 7.50331 270.712 7.31131 270.52C7.11931 270.328 7.0233 270.093 7.0233 269.816C7.0233 269.539 7.11931 269.304 7.31131 269.112C7.50331 268.92 7.73797 268.824 8.01531 268.824C8.28197 268.824 8.50597 268.92 8.68731 269.112C8.87931 269.304 8.97531 269.539 8.97531 269.816C8.97531 270.093 8.87931 270.328 8.68731 270.52C8.50597 270.712 8.28197 270.808 8.01531 270.808ZM8.71931 272.232V281H7.26331V272.232H8.71931Z" fill="#333333"/>
<path d="M10.6568 276.6C10.6568 275.693 10.8381 274.904 11.2008 274.232C11.5635 273.549 12.0648 273.021 12.7048 272.648C13.3555 272.275 14.0968 272.088 14.9288 272.088C16.0061 272.088 16.8915 272.349 17.5848 272.872C18.2888 273.395 18.7528 274.12 18.9768 275.048H17.4088C17.2595 274.515 16.9661 274.093 16.5288 273.784C16.1021 273.475 15.5688 273.32 14.9288 273.32C14.0968 273.32 13.4248 273.608 12.9128 274.184C12.4008 274.749 12.1448 275.555 12.1448 276.6C12.1448 277.656 12.4008 278.472 12.9128 279.048C13.4248 279.624 14.0968 279.912 14.9288 279.912C15.5688 279.912 16.1021 279.763 16.5288 279.464C16.9555 279.165 17.2488 278.739 17.4088 278.184H18.9768C18.7421 279.08 18.2728 279.8 17.5688 280.344C16.8648 280.877 15.9848 281.144 14.9288 281.144C14.0968 281.144 13.3555 280.957 12.7048 280.584C12.0648 280.211 11.5635 279.683 11.2008 279C10.8381 278.317 10.6568 277.517 10.6568 276.6Z" fill="#333333"/>
<path d="M24.7436 281.144C23.9222 281.144 23.1756 280.957 22.5036 280.584C21.8422 280.211 21.3196 279.683 20.9356 279C20.5622 278.307 20.3756 277.507 20.3756 276.6C20.3756 275.704 20.5676 274.915 20.9516 274.232C21.3462 273.539 21.8796 273.011 22.5516 272.648C23.2236 272.275 23.9756 272.088 24.8076 272.088C25.6396 272.088 26.3916 272.275 27.0636 272.648C27.7356 273.011 28.2636 273.533 28.6476 274.216C29.0422 274.899 29.2396 275.693 29.2396 276.6C29.2396 277.507 29.0369 278.307 28.6316 279C28.2369 279.683 27.6982 280.211 27.0156 280.584C26.3329 280.957 25.5756 281.144 24.7436 281.144ZM24.7436 279.864C25.2662 279.864 25.7569 279.741 26.2156 279.496C26.6742 279.251 27.0422 278.883 27.3196 278.392C27.6076 277.901 27.7516 277.304 27.7516 276.6C27.7516 275.896 27.6129 275.299 27.3356 274.808C27.0582 274.317 26.6956 273.955 26.2476 273.72C25.7996 273.475 25.3142 273.352 24.7916 273.352C24.2582 273.352 23.7676 273.475 23.3196 273.72C22.8822 273.955 22.5302 274.317 22.2636 274.808C21.9969 275.299 21.8636 275.896 21.8636 276.6C21.8636 277.315 21.9916 277.917 22.2476 278.408C22.5142 278.899 22.8662 279.267 23.3036 279.512C23.7409 279.747 24.2209 279.864 24.7436 279.864Z" fill="#333333"/>
<path d="M32.6099 273.656C32.8659 273.155 33.2286 272.765 33.6979 272.488C34.1779 272.211 34.7593 272.072 35.4419 272.072V273.576H35.0579C33.4259 273.576 32.6099 274.461 32.6099 276.232V281H31.1539V272.232H32.6099V273.656Z" fill="#333333"/>
<path d="M37.8747 270.808C37.5974 270.808 37.3627 270.712 37.1707 270.52C36.9787 270.328 36.8827 270.093 36.8827 269.816C36.8827 269.539 36.9787 269.304 37.1707 269.112C37.3627 268.92 37.5974 268.824 37.8747 268.824C38.1414 268.824 38.3653 268.92 38.5467 269.112C38.7387 269.304 38.8347 269.539 38.8347 269.816C38.8347 270.093 38.7387 270.328 38.5467 270.52C38.3653 270.712 38.1414 270.808 37.8747 270.808ZM38.5787 272.232V281H37.1227V272.232H38.5787Z" fill="#333333"/>
<path d="M40.5162 276.6C40.5162 275.693 40.6975 274.904 41.0602 274.232C41.4228 273.549 41.9242 273.021 42.5642 272.648C43.2148 272.275 43.9562 272.088 44.7882 272.088C45.8655 272.088 46.7509 272.349 47.4442 272.872C48.1482 273.395 48.6122 274.12 48.8362 275.048H47.2682C47.1189 274.515 46.8255 274.093 46.3882 273.784C45.9615 273.475 45.4282 273.32 44.7882 273.32C43.9562 273.32 43.2842 273.608 42.7722 274.184C42.2602 274.749 42.0042 275.555 42.0042 276.6C42.0042 277.656 42.2602 278.472 42.7722 279.048C43.2842 279.624 43.9562 279.912 44.7882 279.912C45.4282 279.912 45.9615 279.763 46.3882 279.464C46.8149 279.165 47.1082 278.739 47.2682 278.184H48.8362C48.6015 279.08 48.1322 279.8 47.4282 280.344C46.7242 280.877 45.8442 281.144 44.7882 281.144C43.9562 281.144 43.2148 280.957 42.5642 280.584C41.9242 280.211 41.4228 279.683 41.0602 279C40.6975 278.317 40.5162 277.517 40.5162 276.6Z" fill="#333333"/>
<path d="M58.7789 276.28C58.7789 276.557 58.7629 276.851 58.7309 277.16H51.7229C51.7763 278.024 52.0696 278.701 52.6029 279.192C53.1469 279.672 53.8029 279.912 54.5709 279.912C55.2003 279.912 55.7229 279.768 56.1389 279.48C56.5656 279.181 56.8643 278.787 57.0349 278.296H58.6029C58.3683 279.139 57.8989 279.827 57.1949 280.36C56.4909 280.883 55.6163 281.144 54.5709 281.144C53.7389 281.144 52.9923 280.957 52.3309 280.584C51.6803 280.211 51.1683 279.683 50.7949 279C50.4216 278.307 50.2349 277.507 50.2349 276.6C50.2349 275.693 50.4163 274.899 50.7789 274.216C51.1416 273.533 51.6483 273.011 52.2989 272.648C52.9603 272.275 53.7176 272.088 54.5709 272.088C55.4029 272.088 56.1389 272.269 56.7789 272.632C57.4189 272.995 57.9096 273.496 58.2509 274.136C58.6029 274.765 58.7789 275.48 58.7789 276.28ZM57.2749 275.976C57.2749 275.421 57.1523 274.947 56.9069 274.552C56.6616 274.147 56.3256 273.843 55.8989 273.64C55.4829 273.427 55.0189 273.32 54.5069 273.32C53.7709 273.32 53.1416 273.555 52.6189 274.024C52.1069 274.493 51.8136 275.144 51.7389 275.976H57.2749Z" fill="#333333"/>
<path d="M66.4224 273.656C66.6784 273.155 67.0411 272.765 67.5104 272.488C67.9904 272.211 68.5718 272.072 69.2544 272.072V273.576H68.8704C67.2384 273.576 66.4224 274.461 66.4224 276.232V281H64.9664V272.232H66.4224V273.656Z" fill="#333333"/>
<path d="M74.7592 281.144C73.9378 281.144 73.1912 280.957 72.5192 280.584C71.8578 280.211 71.3352 279.683 70.9512 279C70.5778 278.307 70.3912 277.507 70.3912 276.6C70.3912 275.704 70.5832 274.915 70.9672 274.232C71.3618 273.539 71.8952 273.011 72.5672 272.648C73.2392 272.275 73.9912 272.088 74.8232 272.088C75.6552 272.088 76.4072 272.275 77.0792 272.648C77.7512 273.011 78.2792 273.533 78.6632 274.216C79.0578 274.899 79.2552 275.693 79.2552 276.6C79.2552 277.507 79.0525 278.307 78.6472 279C78.2525 279.683 77.7138 280.211 77.0312 280.584C76.3485 280.957 75.5912 281.144 74.7592 281.144ZM74.7592 279.864C75.2818 279.864 75.7725 279.741 76.2312 279.496C76.6898 279.251 77.0578 278.883 77.3352 278.392C77.6232 277.901 77.7672 277.304 77.7672 276.6C77.7672 275.896 77.6285 275.299 77.3512 274.808C77.0738 274.317 76.7112 273.955 76.2632 273.72C75.8152 273.475 75.3298 273.352 74.8072 273.352C74.2738 273.352 73.7832 273.475 73.3352 273.72C72.8978 273.955 72.5458 274.317 72.2792 274.808C72.0125 275.299 71.8792 275.896 71.8792 276.6C71.8792 277.315 72.0072 277.917 72.2632 278.408C72.5298 278.899 72.8818 279.267 73.3192 279.512C73.7565 279.747 74.2365 279.864 74.7592 279.864Z" fill="#333333"/>
<path d="M84.9936 281.144C84.1722 281.144 83.4256 280.957 82.7536 280.584C82.0922 280.211 81.5696 279.683 81.1856 279C80.8122 278.307 80.6256 277.507 80.6256 276.6C80.6256 275.704 80.8176 274.915 81.2016 274.232C81.5962 273.539 82.1296 273.011 82.8016 272.648C83.4736 272.275 84.2256 272.088 85.0576 272.088C85.8896 272.088 86.6416 272.275 87.3136 272.648C87.9856 273.011 88.5136 273.533 88.8976 274.216C89.2922 274.899 89.4896 275.693 89.4896 276.6C89.4896 277.507 89.2869 278.307 88.8816 279C88.4869 279.683 87.9482 280.211 87.2656 280.584C86.5829 280.957 85.8256 281.144 84.9936 281.144ZM84.9936 279.864C85.5162 279.864 86.0069 279.741 86.4656 279.496C86.9242 279.251 87.2922 278.883 87.5696 278.392C87.8576 277.901 88.0016 277.304 88.0016 276.6C88.0016 275.896 87.8629 275.299 87.5856 274.808C87.3082 274.317 86.9456 273.955 86.4976 273.72C86.0496 273.475 85.5642 273.352 85.0416 273.352C84.5082 273.352 84.0176 273.475 83.5696 273.72C83.1322 273.955 82.7802 274.317 82.5136 274.808C82.2469 275.299 82.1136 275.896 82.1136 276.6C82.1136 277.315 82.2416 277.917 82.4976 278.408C82.7642 278.899 83.1162 279.267 83.5536 279.512C83.9909 279.747 84.4709 279.864 84.9936 279.864Z" fill="#333333"/>
<path d="M93.1799 273.432V278.6C93.1799 279.027 93.2706 279.331 93.4519 279.512C93.6333 279.683 93.9479 279.768 94.3959 279.768H95.4679V281H94.1559C93.3453 281 92.7373 280.813 92.3319 280.44C91.9266 280.067 91.7239 279.453 91.7239 278.6V273.432H90.5879V272.232H91.7239V270.024H93.1799V272.232H95.4679V273.432H93.1799Z" fill="#333333"/>
<path d="M33.2054 342.848V344.032H30.1654V354H28.7094V344.032H25.6534V342.848H33.2054Z" fill="#333333"/>
<path d="M42.7737 345.232V354H41.3177V352.704C41.0404 353.152 40.651 353.504 40.1497 353.76C39.659 354.005 39.115 354.128 38.5177 354.128C37.835 354.128 37.2217 353.989 36.6777 353.712C36.1337 353.424 35.7017 352.997 35.3817 352.432C35.0724 351.867 34.9177 351.179 34.9177 350.368V345.232H36.3577V350.176C36.3577 351.04 36.5764 351.707 37.0137 352.176C37.451 352.635 38.0484 352.864 38.8057 352.864C39.5844 352.864 40.1977 352.624 40.6457 352.144C41.0937 351.664 41.3177 350.965 41.3177 350.048V345.232H42.7737Z" fill="#333333"/>
<path d="M46.6881 346.656C46.9441 346.155 47.3067 345.765 47.7761 345.488C48.2561 345.211 48.8374 345.072 49.5201 345.072V346.576H49.1361C47.5041 346.576 46.6881 347.461 46.6881 349.232V354H45.2321V345.232H46.6881V346.656Z" fill="#333333"/>
<path d="M61.7448 345.072C62.4275 345.072 63.0355 345.216 63.5688 345.504C64.1022 345.781 64.5235 346.203 64.8328 346.768C65.1422 347.333 65.2968 348.021 65.2968 348.832V354H63.8568V349.04C63.8568 348.165 63.6382 347.499 63.2008 347.04C62.7742 346.571 62.1928 346.336 61.4568 346.336C60.6995 346.336 60.0968 346.581 59.6488 347.072C59.2008 347.552 58.9768 348.251 58.9768 349.168V354H57.5368V349.04C57.5368 348.165 57.3181 347.499 56.8808 347.04C56.4541 346.571 55.8728 346.336 55.1368 346.336C54.3795 346.336 53.7768 346.581 53.3288 347.072C52.8808 347.552 52.6568 348.251 52.6568 349.168V354H51.2008V345.232H52.6568V346.496C52.9448 346.037 53.3288 345.685 53.8088 345.44C54.2995 345.195 54.8382 345.072 55.4248 345.072C56.1608 345.072 56.8115 345.237 57.3768 345.568C57.9422 345.899 58.3635 346.384 58.6408 347.024C58.8861 346.405 59.2915 345.925 59.8568 345.584C60.4222 345.243 61.0515 345.072 61.7448 345.072Z" fill="#333333"/>
<path d="M75.6852 349.28C75.6852 349.557 75.6692 349.851 75.6372 350.16H68.6292C68.6825 351.024 68.9759 351.701 69.5092 352.192C70.0532 352.672 70.7092 352.912 71.4772 352.912C72.1065 352.912 72.6292 352.768 73.0452 352.48C73.4719 352.181 73.7705 351.787 73.9412 351.296H75.5092C75.2745 352.139 74.8052 352.827 74.1012 353.36C73.3972 353.883 72.5225 354.144 71.4772 354.144C70.6452 354.144 69.8985 353.957 69.2372 353.584C68.5865 353.211 68.0745 352.683 67.7012 352C67.3279 351.307 67.1412 350.507 67.1412 349.6C67.1412 348.693 67.3225 347.899 67.6852 347.216C68.0479 346.533 68.5545 346.011 69.2052 345.648C69.8665 345.275 70.6239 345.088 71.4772 345.088C72.3092 345.088 73.0452 345.269 73.6852 345.632C74.3252 345.995 74.8159 346.496 75.1572 347.136C75.5092 347.765 75.6852 348.48 75.6852 349.28ZM74.1812 348.976C74.1812 348.421 74.0585 347.947 73.8132 347.552C73.5679 347.147 73.2319 346.843 72.8052 346.64C72.3892 346.427 71.9252 346.32 71.4132 346.32C70.6772 346.32 70.0479 346.555 69.5252 347.024C69.0132 347.493 68.7199 348.144 68.6452 348.976H74.1812Z" fill="#333333"/>
<path d="M79.0631 346.656C79.3191 346.155 79.6817 345.765 80.1511 345.488C80.6311 345.211 81.2124 345.072 81.8951 345.072V346.576H81.5111C79.8791 346.576 79.0631 347.461 79.0631 349.232V354H77.6071V345.232H79.0631V346.656Z" fill="#333333"/>
<path d="M84.3278 343.808C84.0505 343.808 83.8158 343.712 83.6238 343.52C83.4318 343.328 83.3358 343.093 83.3358 342.816C83.3358 342.539 83.4318 342.304 83.6238 342.112C83.8158 341.92 84.0505 341.824 84.3278 341.824C84.5945 341.824 84.8185 341.92 84.9998 342.112C85.1918 342.304 85.2878 342.539 85.2878 342.816C85.2878 343.093 85.1918 343.328 84.9998 343.52C84.8185 343.712 84.5945 343.808 84.3278 343.808ZM85.0318 345.232V354H83.5758V345.232H85.0318Z" fill="#333333"/>
<path d="M86.9693 349.6C86.9693 348.693 87.1507 347.904 87.5133 347.232C87.876 346.549 88.3773 346.021 89.0173 345.648C89.668 345.275 90.4093 345.088 91.2413 345.088C92.3187 345.088 93.204 345.349 93.8973 345.872C94.6013 346.395 95.0653 347.12 95.2893 348.048H93.7213C93.572 347.515 93.2786 347.093 92.8413 346.784C92.4146 346.475 91.8813 346.32 91.2413 346.32C90.4093 346.32 89.7373 346.608 89.2253 347.184C88.7133 347.749 88.4573 348.555 88.4573 349.6C88.4573 350.656 88.7133 351.472 89.2253 352.048C89.7373 352.624 90.4093 352.912 91.2413 352.912C91.8813 352.912 92.4146 352.763 92.8413 352.464C93.268 352.165 93.5613 351.739 93.7213 351.184H95.2893C95.0547 352.08 94.5853 352.8 93.8813 353.344C93.1773 353.877 92.2973 354.144 91.2413 354.144C90.4093 354.144 89.668 353.957 89.0173 353.584C88.3773 353.211 87.876 352.683 87.5133 352C87.1507 351.317 86.9693 350.517 86.9693 349.6Z" fill="#333333"/>
<g clip-path="url(#clip0_21779_249)">
<path fill-rule="evenodd" clip-rule="evenodd" d="M162.868 14.875C306.779 -4.23708 389.726 -5.66674 543.133 14.8751L544 14.9912V15.8663V82.2515V83.2515H543H534.927V113.697V114.697H533.927H518.735C518.665 115.069 518.575 115.562 518.477 116.153C518.244 117.56 517.965 119.519 517.778 121.726C517.402 126.182 517.423 131.482 518.853 135.309C520.376 139.39 524.228 143.748 527.817 147.152C529.594 148.837 531.272 150.257 532.507 151.256C533.124 151.755 533.629 152.148 533.979 152.415C534.153 152.549 534.289 152.651 534.381 152.72L534.421 152.75L534.484 152.797L534.51 152.815L534.516 152.82L534.517 152.82L534.513 152.826L534.517 152.821L534.927 153.12V153.628V179.082H543H544V180.082V339.307V340.307H543H534.927V376.243V377.055L534.132 377.222C408.233 403.576 327.765 403.617 173.506 377.229L172.674 377.087V376.243V340.307H163H162V339.307V180.082V179.082H163H172.674V153.628V153.045L173.182 152.758C174.051 152.266 174.943 151.783 175.843 151.297C178.642 149.784 181.513 148.232 184.004 146.226C187.243 143.619 189.716 140.329 190.294 135.539L190.295 135.529L190.297 135.518C191.225 129.01 191.36 124.558 190.382 114.697H173.674H172.674V113.697V83.2515H163H162V82.2515V15.8663V14.9903L162.868 14.875ZM174.674 340.419C321.407 356.01 400.271 356.026 532.927 340.432V375.43C408.002 401.51 327.87 401.556 174.674 375.399V340.419ZM192.392 114.697H516.701C516.642 115.019 516.575 115.398 516.504 115.827C516.265 117.272 515.977 119.286 515.785 121.558C515.537 124.497 515.442 127.94 515.851 131.165H192.824C193.226 126.57 193.123 122.128 192.392 114.697ZM192.62 133.165H516.178C516.382 134.159 516.645 135.115 516.979 136.009C518.675 140.552 522.829 145.178 526.441 148.603C528.265 150.333 529.985 151.788 531.249 152.811C531.882 153.322 532.401 153.727 532.763 154.004C532.822 154.049 532.877 154.09 532.927 154.128V179.707C393.559 186.462 314.512 185.947 174.674 179.626V154.214C175.314 153.858 175.98 153.498 176.662 153.13L176.666 153.128L176.667 153.127L176.675 153.123L176.678 153.121L176.678 153.121C179.509 151.591 182.61 149.916 185.259 147.784C188.773 144.955 191.618 141.235 192.278 135.79C192.407 134.883 192.521 134.014 192.62 133.165ZM517.916 112.697H532.927V83.2512H174.674V112.697L191.286 112.697L517.916 112.697ZM173.674 81.2515L173.674 81.2512H533.927L533.927 81.2515H542V16.7414C389.641 -3.61303 306.94 -2.20223 164 16.7424V81.2515H173.674ZM173.629 181.58L173.651 181.082H164V338.307H173.674H173.727L173.78 338.313C321.503 354.051 400.308 354.06 533.81 338.314L533.868 338.307H533.927H542V181.082H535.553L535.577 181.58C394.229 188.485 314.97 187.984 173.629 181.58Z" fill="#344F10"/>
<path d="M147 50.5017C147 49.121 148.119 48.0017 149.5 48.0017C150.881 48.0017 152 49.121 152 50.5017C152 51.8824 150.881 53.0017 149.5 53.0017C148.119 53.0017 147 51.8824 147 50.5017Z" fill="#333333"/>
<path d="M147 123.502C147 122.121 148.119 121.002 149.5 121.002C150.881 121.002 152 122.121 152 123.502C152 124.882 150.881 126.002 149.5 126.002C148.119 126.002 147 124.882 147 123.502Z" fill="#333333"/>
<path d="M152 199.502C152 200.882 150.881 202.002 149.5 202.002C148.119 202.002 147 200.882 147 199.502C147 198.121 148.119 197.002 149.5 197.002C150.881 197.002 152 198.121 152 199.502Z" fill="#333333"/>
<path d="M148 51L116 51V50L148 50V51Z" fill="#333333"/>
<path d="M148 124H116V123H148V124Z" fill="#333333"/>
<path d="M148 200H116V199H148V200Z" fill="#333333"/>
<path d="M152 199.502C152 200.882 150.881 202.002 149.5 202.002C148.119 202.002 147 200.882 147 199.502C147 198.121 148.119 197.002 149.5 197.002C150.881 197.002 152 198.121 152 199.502Z" fill="#333333"/>
<path d="M152 272.502C152 273.882 150.881 275.002 149.5 275.002C148.119 275.002 147 273.882 147 272.502C147 271.121 148.119 270.002 149.5 270.002C150.881 270.002 152 271.121 152 272.502Z" fill="#333333"/>
<path d="M148 273H116V272H148V273Z" fill="#333333"/>
<path d="M152 272.502C152 273.882 150.881 275.002 149.5 275.002C148.119 275.002 147 273.882 147 272.502C147 271.121 148.119 270.002 149.5 270.002C150.881 270.002 152 271.121 152 272.502Z" fill="#333333"/>
<path d="M152 272.502C152 273.882 150.881 275.002 149.5 275.002C148.119 275.002 147 273.882 147 272.502C147 271.121 148.119 270.002 149.5 270.002C150.881 270.002 152 271.121 152 272.502Z" fill="#333333"/>
<path d="M152 272.502C152 273.882 150.881 275.002 149.5 275.002C148.119 275.002 147 273.882 147 272.502C147 271.121 148.119 270.002 149.5 270.002C150.881 270.002 152 271.121 152 272.502Z" fill="#333333"/>
<path d="M152 344.502C152 345.882 150.881 347.002 149.5 347.002C148.119 347.002 147 345.882 147 344.502C147 343.121 148.119 342.002 149.5 342.002C150.881 342.002 152 343.121 152 344.502Z" fill="#333333"/>
<path d="M148 345H116V344H148V345Z" fill="#333333"/>
<path d="M152 344.502C152 345.882 150.881 347.002 149.5 347.002C148.119 347.002 147 345.882 147 344.502C147 343.121 148.119 342.002 149.5 342.002C150.881 342.002 152 343.121 152 344.502Z" fill="#333333"/>
<path d="M152 344.502C152 345.882 150.881 347.002 149.5 347.002C148.119 347.002 147 345.882 147 344.502C147 343.121 148.119 342.002 149.5 342.002C150.881 342.002 152 343.121 152 344.502Z" fill="#333333"/>
<path d="M152 344.502C152 345.882 150.881 347.002 149.5 347.002C148.119 347.002 147 345.882 147 344.502C147 343.121 148.119 342.002 149.5 342.002C150.881 342.002 152 343.121 152 344.502Z" fill="#333333"/>
</g>
<defs>
<clipPath id="clip0_21779_249">
<rect width="182" height="397" fill="white" transform="translate(116)"/>
</clipPath>
</defs>
</svg>
