<svg width="516" height="398" viewBox="0 0 516 398" fill="none" xmlns="http://www.w3.org/2000/svg">
<g clip-path="url(#clip0_21779_892)">
<path fill-rule="evenodd" clip-rule="evenodd" d="M216.026 15.8733C359.936 -3.23879 442.884 -4.66845 596.29 15.8734L597.157 15.9895V16.8646V83.2497V84.2497H596.157H588.084V114.695V115.695H587.084H571.893C571.822 116.067 571.732 116.56 571.634 117.152C571.401 118.559 571.122 120.518 570.936 122.724C570.56 127.181 570.581 132.48 572.01 136.308C573.534 140.388 577.385 144.747 580.974 148.15C582.751 149.835 584.43 151.255 585.664 152.254C586.281 152.753 586.786 153.146 587.136 153.414C587.311 153.547 587.447 153.65 587.538 153.718L587.579 153.748L587.641 153.795L587.667 153.814L587.673 153.818L587.674 153.819L587.67 153.824L587.674 153.819L588.084 154.118V154.626V180.081H596.157H597.157V181.081V340.305V341.305H596.157H588.084V377.241V378.054L587.289 378.22C461.39 404.574 380.922 404.615 226.663 378.227L225.831 378.085V377.241V341.305H216.157H215.157V340.305V181.081V180.081H216.157H225.831V154.626V154.043L226.339 153.756C227.209 153.264 228.101 152.782 229 152.296C231.799 150.782 234.67 149.23 237.162 147.224C240.4 144.617 242.873 141.327 243.451 136.538L243.452 136.527L243.454 136.516C244.382 130.008 244.518 125.557 243.54 115.695H226.831H225.831V114.695V84.2497H216.157H215.157V83.2497V16.8646V15.9886L216.026 15.8733ZM227.831 341.417C374.564 357.008 453.428 357.024 586.084 341.43V376.429C461.16 402.508 381.027 402.554 227.831 376.398V341.417ZM245.549 115.695H569.858C569.799 116.017 569.732 116.396 569.661 116.825C569.422 118.271 569.134 120.284 568.943 122.556C568.695 125.495 568.6 128.939 569.008 132.163H245.981C246.383 127.568 246.28 123.126 245.549 115.695ZM245.777 134.163H569.336C569.539 135.157 569.802 136.113 570.136 137.007C571.832 141.55 575.986 146.176 579.598 149.601C581.422 151.331 583.142 152.786 584.406 153.809C585.039 154.321 585.558 154.725 585.921 155.002C585.979 155.047 586.034 155.089 586.084 155.127V180.705C446.717 187.461 367.669 186.945 227.831 180.624V155.212C228.471 154.856 229.137 154.497 229.819 154.128L229.823 154.126L229.825 154.125L229.833 154.121L229.835 154.12L229.835 154.119C232.667 152.59 235.767 150.915 238.416 148.782C241.93 145.953 244.775 142.233 245.435 136.788C245.564 135.881 245.679 135.012 245.777 134.163ZM571.073 113.695H586.084V84.2495H227.831V113.695L244.444 113.695L571.073 113.695ZM226.831 82.2497L226.831 82.2495H587.084L587.084 82.2497H595.157V17.7397C442.799 -2.61474 360.097 -1.20394 217.157 17.7407V82.2497H226.831ZM226.786 182.579L226.809 182.081H217.157V339.305H226.831H226.885L226.937 339.311C374.66 355.049 453.465 355.058 586.967 339.312L587.025 339.305H587.084H595.157V182.081H588.71L588.734 182.578C447.386 189.483 368.128 188.982 226.786 182.579Z" fill="#344F10"/>
<circle cx="194.657" cy="51.5" r="2.5" transform="rotate(-180 194.657 51.5)" fill="#333333"/>
<circle cx="194.657" cy="124.5" r="2.5" transform="rotate(-180 194.657 124.5)" fill="#333333"/>
<circle cx="194.657" cy="200.5" r="2.5" fill="#333333"/>
<rect x="193.157" y="52" width="76" height="1" transform="rotate(-180 193.157 52)" fill="#333333"/>
<rect x="193.157" y="125" width="76" height="1" transform="rotate(-180 193.157 125)" fill="#333333"/>
<rect x="193.157" y="201" width="76" height="1" transform="rotate(-180 193.157 201)" fill="#333333"/>
<circle cx="194.657" cy="200.5" r="2.5" fill="#333333"/>
<circle cx="194.657" cy="273.5" r="2.5" fill="#333333"/>
<rect x="193.157" y="274" width="76" height="1" transform="rotate(-180 193.157 274)" fill="#333333"/>
<circle cx="194.657" cy="273.5" r="2.5" fill="#333333"/>
<circle cx="194.657" cy="273.5" r="2.5" fill="#333333"/>
<circle cx="194.657" cy="273.5" r="2.5" fill="#333333"/>
<circle cx="194.657" cy="345.5" r="2.5" fill="#333333"/>
<rect x="193.157" y="346" width="76" height="1" transform="rotate(-180 193.157 346)" fill="#333333"/>
<circle cx="194.657" cy="345.5" r="2.5" fill="#333333"/>
<circle cx="194.657" cy="345.5" r="2.5" fill="#333333"/>
<circle cx="194.657" cy="345.5" r="2.5" fill="#333333"/>
</g>
<path d="M55.7029 56.9983L51.1109 51.9103V56.9983H49.6549V45.8463H51.1109V51.0143L55.7189 45.8463H57.5589L52.5029 51.4303L57.6069 56.9983H55.7029ZM58.689 52.5823C58.689 51.6863 58.8703 50.9023 59.233 50.2303C59.5956 49.5476 60.0916 49.0196 60.721 48.6463C61.361 48.273 62.0703 48.0863 62.849 48.0863C63.617 48.0863 64.2836 48.2516 64.849 48.5823C65.4143 48.913 65.8356 49.329 66.113 49.8303V48.2303H67.585V56.9983H66.113V55.3663C65.825 55.8783 65.393 56.305 64.817 56.6463C64.2516 56.977 63.5903 57.1423 62.833 57.1423C62.0543 57.1423 61.3503 56.9503 60.721 56.5663C60.0916 56.1823 59.5956 55.6436 59.233 54.9503C58.8703 54.257 58.689 53.4676 58.689 52.5823ZM66.113 52.5983C66.113 51.937 65.9796 51.361 65.713 50.8703C65.4463 50.3796 65.0836 50.0063 64.625 49.7503C64.177 49.4836 63.681 49.3503 63.137 49.3503C62.593 49.3503 62.097 49.4783 61.649 49.7343C61.201 49.9903 60.8436 50.3636 60.577 50.8543C60.3103 51.345 60.177 51.921 60.177 52.5823C60.177 53.2543 60.3103 53.841 60.577 54.3423C60.8436 54.833 61.201 55.2116 61.649 55.4783C62.097 55.7343 62.593 55.8623 63.137 55.8623C63.681 55.8623 64.177 55.7343 64.625 55.4783C65.0836 55.2116 65.4463 54.833 65.713 54.3423C65.9796 53.841 66.113 53.2596 66.113 52.5983ZM73.8695 57.1423C73.0481 57.1423 72.3015 56.9556 71.6295 56.5823C70.9681 56.209 70.4455 55.681 70.0615 54.9983C69.6881 54.305 69.5015 53.505 69.5015 52.5983C69.5015 51.7023 69.6935 50.913 70.0775 50.2303C70.4721 49.537 71.0055 49.009 71.6775 48.6463C72.3495 48.273 73.1015 48.0863 73.9335 48.0863C74.7655 48.0863 75.5175 48.273 76.1895 48.6463C76.8615 49.009 77.3895 49.5316 77.7735 50.2143C78.1681 50.897 78.3655 51.6916 78.3655 52.5983C78.3655 53.505 78.1628 54.305 77.7575 54.9983C77.3628 55.681 76.8241 56.209 76.1415 56.5823C75.4588 56.9556 74.7015 57.1423 73.8695 57.1423ZM73.8695 55.8623C74.3921 55.8623 74.8828 55.7396 75.3415 55.4943C75.8001 55.249 76.1681 54.881 76.4455 54.3903C76.7335 53.8996 76.8775 53.3023 76.8775 52.5983C76.8775 51.8943 76.7388 51.297 76.4615 50.8063C76.1841 50.3156 75.8215 49.953 75.3735 49.7183C74.9255 49.473 74.4401 49.3503 73.9175 49.3503C73.3841 49.3503 72.8935 49.473 72.4455 49.7183C72.0081 49.953 71.6561 50.3156 71.3895 50.8063C71.1228 51.297 70.9895 51.8943 70.9895 52.5983C70.9895 53.313 71.1175 53.9156 71.3735 54.4063C71.6401 54.897 71.9921 55.265 72.4295 55.5103C72.8668 55.745 73.3468 55.8623 73.8695 55.8623ZM81.7359 45.1583V56.9983H80.2799V45.1583H81.7359ZM84.9694 46.8063C84.692 46.8063 84.4574 46.7103 84.2654 46.5183C84.0734 46.3263 83.9774 46.0916 83.9774 45.8143C83.9774 45.537 84.0734 45.3023 84.2654 45.1103C84.4574 44.9183 84.692 44.8223 84.9694 44.8223C85.236 44.8223 85.46 44.9183 85.6414 45.1103C85.8334 45.3023 85.9294 45.537 85.9294 45.8143C85.9294 46.0916 85.8334 46.3263 85.6414 46.5183C85.46 46.7103 85.236 46.8063 84.9694 46.8063ZM85.6734 48.2303V56.9983H84.2174V48.2303H85.6734ZM92.4269 48.0703C93.4935 48.0703 94.3575 48.3956 95.0189 49.0463C95.6802 49.6863 96.0109 50.6143 96.0109 51.8303V56.9983H94.5709V52.0383C94.5709 51.1636 94.3522 50.497 93.9149 50.0383C93.4775 49.569 92.8802 49.3343 92.1229 49.3343C91.3549 49.3343 90.7415 49.5743 90.2829 50.0543C89.8349 50.5343 89.6109 51.233 89.6109 52.1503V56.9983H88.1549V48.2303H89.6109V49.4783C89.8989 49.0303 90.2882 48.6836 90.7789 48.4383C91.2802 48.193 91.8295 48.0703 92.4269 48.0703Z" fill="#333333"/>
<path d="M60.5815 133.11C59.8455 133.11 59.1841 132.982 58.5975 132.726C58.0215 132.46 57.5681 132.097 57.2375 131.638C56.9068 131.169 56.7361 130.63 56.7255 130.022H58.2775C58.3308 130.545 58.5441 130.988 58.9175 131.35C59.3015 131.702 59.8561 131.878 60.5815 131.878C61.2748 131.878 61.8188 131.708 62.2135 131.366C62.6188 131.014 62.8215 130.566 62.8215 130.022C62.8215 129.596 62.7041 129.249 62.4695 128.982C62.2348 128.716 61.9415 128.513 61.5895 128.374C61.2375 128.236 60.7628 128.086 60.1655 127.926C59.4295 127.734 58.8375 127.542 58.3895 127.35C57.9521 127.158 57.5735 126.86 57.2535 126.454C56.9441 126.038 56.7895 125.484 56.7895 124.79C56.7895 124.182 56.9441 123.644 57.2535 123.174C57.5628 122.705 57.9948 122.342 58.5495 122.086C59.1148 121.83 59.7601 121.702 60.4855 121.702C61.5308 121.702 62.3841 121.964 63.0455 122.486C63.7175 123.009 64.0961 123.702 64.1815 124.566H62.5815C62.5281 124.14 62.3041 123.766 61.9095 123.446C61.5148 123.116 60.9921 122.95 60.3415 122.95C59.7335 122.95 59.2375 123.11 58.8535 123.43C58.4695 123.74 58.2775 124.177 58.2775 124.742C58.2775 125.148 58.3895 125.478 58.6135 125.734C58.8481 125.99 59.1308 126.188 59.4615 126.326C59.8028 126.454 60.2775 126.604 60.8855 126.774C61.6215 126.977 62.2135 127.18 62.6615 127.382C63.1095 127.574 63.4935 127.878 63.8135 128.294C64.1335 128.7 64.2935 129.254 64.2935 129.958C64.2935 130.502 64.1495 131.014 63.8615 131.494C63.5735 131.974 63.1468 132.364 62.5815 132.662C62.0161 132.961 61.3495 133.11 60.5815 133.11ZM67.1881 122.806C66.9108 122.806 66.6761 122.71 66.4841 122.518C66.2921 122.326 66.1961 122.092 66.1961 121.814C66.1961 121.537 66.2921 121.302 66.4841 121.11C66.6761 120.918 66.9108 120.822 67.1881 120.822C67.4548 120.822 67.6788 120.918 67.8601 121.11C68.0521 121.302 68.1481 121.537 68.1481 121.814C68.1481 122.092 68.0521 122.326 67.8601 122.518C67.6788 122.71 67.4548 122.806 67.1881 122.806ZM67.8921 124.23V132.998H66.4361V124.23H67.8921ZM73.6376 131.654L76.3576 124.23H77.9096L74.4696 132.998H72.7736L69.3336 124.23H70.9016L73.6376 131.654ZM78.7984 128.582C78.7984 127.686 78.9797 126.902 79.3424 126.23C79.705 125.548 80.201 125.02 80.8304 124.646C81.4704 124.273 82.1797 124.086 82.9584 124.086C83.7264 124.086 84.393 124.252 84.9584 124.582C85.5237 124.913 85.945 125.329 86.2224 125.83V124.23H87.6944V132.998H86.2224V131.366C85.9344 131.878 85.5024 132.305 84.9264 132.646C84.361 132.977 83.6997 133.142 82.9424 133.142C82.1637 133.142 81.4597 132.95 80.8304 132.566C80.201 132.182 79.705 131.644 79.3424 130.95C78.9797 130.257 78.7984 129.468 78.7984 128.582ZM86.2224 128.598C86.2224 127.937 86.089 127.361 85.8224 126.87C85.5557 126.38 85.193 126.006 84.7344 125.75C84.2864 125.484 83.7904 125.35 83.2464 125.35C82.7024 125.35 82.2064 125.478 81.7584 125.734C81.3104 125.99 80.953 126.364 80.6864 126.854C80.4197 127.345 80.2864 127.921 80.2864 128.582C80.2864 129.254 80.4197 129.841 80.6864 130.342C80.953 130.833 81.3104 131.212 81.7584 131.478C82.2064 131.734 82.7024 131.862 83.2464 131.862C83.7904 131.862 84.2864 131.734 84.7344 131.478C85.193 131.212 85.5557 130.833 85.8224 130.342C86.089 129.841 86.2224 129.26 86.2224 128.598ZM95.0509 132.998L91.6109 129.126V132.998H90.1549V121.158H91.6109V128.118L94.9869 124.23H97.0189L92.8909 128.598L97.0349 132.998H95.0509Z" fill="#333333"/>
<path d="M30.3609 200.414C30.3609 199.326 30.6062 198.35 31.0969 197.486C31.5875 196.612 32.2542 195.929 33.0969 195.438C33.9502 194.948 34.8942 194.702 35.9289 194.702C37.1449 194.702 38.2062 194.996 39.1129 195.582C40.0195 196.169 40.6809 197.001 41.0969 198.078H39.3529C39.0435 197.406 38.5955 196.889 38.0089 196.526C37.4329 196.164 36.7395 195.982 35.9289 195.982C35.1502 195.982 34.4515 196.164 33.8329 196.526C33.2142 196.889 32.7289 197.406 32.3769 198.078C32.0249 198.74 31.8489 199.518 31.8489 200.414C31.8489 201.3 32.0249 202.078 32.3769 202.75C32.7289 203.412 33.2142 203.924 33.8329 204.286C34.4515 204.649 35.1502 204.83 35.9289 204.83C36.7395 204.83 37.4329 204.654 38.0089 204.302C38.5955 203.94 39.0435 203.422 39.3529 202.75H41.0969C40.6809 203.817 40.0195 204.644 39.1129 205.23C38.2062 205.806 37.1449 206.094 35.9289 206.094C34.8942 206.094 33.9502 205.854 33.0969 205.374C32.2542 204.884 31.5875 204.206 31.0969 203.342C30.6062 202.478 30.3609 201.502 30.3609 200.414ZM42.7202 201.582C42.7202 200.686 42.9016 199.902 43.2642 199.23C43.6269 198.548 44.1229 198.02 44.7522 197.646C45.3922 197.273 46.1016 197.086 46.8802 197.086C47.6482 197.086 48.3149 197.252 48.8802 197.582C49.4456 197.913 49.8669 198.329 50.1442 198.83V197.23H51.6162V205.998H50.1442V204.366C49.8562 204.878 49.4242 205.305 48.8482 205.646C48.2829 205.977 47.6216 206.142 46.8642 206.142C46.0856 206.142 45.3816 205.95 44.7522 205.566C44.1229 205.182 43.6269 204.644 43.2642 203.95C42.9016 203.257 42.7202 202.468 42.7202 201.582ZM50.1442 201.598C50.1442 200.937 50.0109 200.361 49.7442 199.87C49.4776 199.38 49.1149 199.006 48.6562 198.75C48.2082 198.484 47.7122 198.35 47.1682 198.35C46.6242 198.35 46.1282 198.478 45.6802 198.734C45.2322 198.99 44.8749 199.364 44.6082 199.854C44.3416 200.345 44.2082 200.921 44.2082 201.582C44.2082 202.254 44.3416 202.841 44.6082 203.342C44.8749 203.833 45.2322 204.212 45.6802 204.478C46.1282 204.734 46.6242 204.862 47.1682 204.862C47.7122 204.862 48.2082 204.734 48.6562 204.478C49.1149 204.212 49.4776 203.833 49.7442 203.342C50.0109 202.841 50.1442 202.26 50.1442 201.598ZM55.5327 194.158V205.998H54.0767V194.158H55.5327ZM57.4702 201.598C57.4702 200.692 57.6516 199.902 58.0142 199.23C58.3769 198.548 58.8782 198.02 59.5182 197.646C60.1689 197.273 60.9102 197.086 61.7422 197.086C62.8196 197.086 63.7049 197.348 64.3982 197.87C65.1022 198.393 65.5662 199.118 65.7902 200.046H64.2222C64.0729 199.513 63.7796 199.092 63.3422 198.782C62.9156 198.473 62.3822 198.318 61.7422 198.318C60.9102 198.318 60.2382 198.606 59.7262 199.182C59.2142 199.748 58.9582 200.553 58.9582 201.598C58.9582 202.654 59.2142 203.47 59.7262 204.046C60.2382 204.622 60.9102 204.91 61.7422 204.91C62.3822 204.91 62.9156 204.761 63.3422 204.462C63.7689 204.164 64.0622 203.737 64.2222 203.182H65.7902C65.5556 204.078 65.0862 204.798 64.3822 205.342C63.6782 205.876 62.7982 206.142 61.7422 206.142C60.9102 206.142 60.1689 205.956 59.5182 205.582C58.8782 205.209 58.3769 204.681 58.0142 203.998C57.6516 203.316 57.4702 202.516 57.4702 201.598ZM68.485 195.806C68.2076 195.806 67.973 195.71 67.781 195.518C67.589 195.326 67.493 195.092 67.493 194.814C67.493 194.537 67.589 194.302 67.781 194.11C67.973 193.918 68.2076 193.822 68.485 193.822C68.7516 193.822 68.9756 193.918 69.157 194.11C69.349 194.302 69.445 194.537 69.445 194.814C69.445 195.092 69.349 195.326 69.157 195.518C68.9756 195.71 68.7516 195.806 68.485 195.806ZM69.189 197.23V205.998H67.733V197.23H69.189ZM79.4465 197.23V205.998H77.9905V204.702C77.7131 205.15 77.3238 205.502 76.8225 205.758C76.3318 206.004 75.7878 206.126 75.1905 206.126C74.5078 206.126 73.8945 205.988 73.3505 205.71C72.8065 205.422 72.3745 204.996 72.0545 204.43C71.7451 203.865 71.5905 203.177 71.5905 202.366V197.23H73.0305V202.174C73.0305 203.038 73.2491 203.705 73.6865 204.174C74.1238 204.633 74.7211 204.862 75.4785 204.862C76.2571 204.862 76.8705 204.622 77.3185 204.142C77.7665 203.662 77.9905 202.964 77.9905 202.046V197.23H79.4465ZM92.4489 197.07C93.1315 197.07 93.7395 197.214 94.2729 197.502C94.8062 197.78 95.2275 198.201 95.5369 198.766C95.8462 199.332 96.0009 200.02 96.0009 200.83V205.998H94.5609V201.038C94.5609 200.164 94.3422 199.497 93.9049 199.038C93.4782 198.569 92.8969 198.334 92.1609 198.334C91.4035 198.334 90.8009 198.58 90.3529 199.07C89.9049 199.55 89.6809 200.249 89.6809 201.166V205.998H88.2409V201.038C88.2409 200.164 88.0222 199.497 87.5849 199.038C87.1582 198.569 86.5769 198.334 85.8409 198.334C85.0835 198.334 84.4809 198.58 84.0329 199.07C83.5849 199.55 83.3609 200.249 83.3609 201.166V205.998H81.9049V197.23H83.3609V198.494C83.6489 198.036 84.0329 197.684 84.5129 197.438C85.0035 197.193 85.5422 197.07 86.1289 197.07C86.8649 197.07 87.5155 197.236 88.0809 197.566C88.6462 197.897 89.0675 198.382 89.3449 199.022C89.5902 198.404 89.9955 197.924 90.5609 197.582C91.1262 197.241 91.7555 197.07 92.4489 197.07Z" fill="#333333"/>
<path d="M2.97023 280.814H6.87423V281.998H1.51423V270.846H2.97023V280.814ZM9.17248 271.806C8.89514 271.806 8.66048 271.71 8.46848 271.518C8.27648 271.326 8.18048 271.092 8.18048 270.814C8.18048 270.537 8.27648 270.302 8.46848 270.11C8.66048 269.918 8.89514 269.822 9.17248 269.822C9.43914 269.822 9.66314 269.918 9.84448 270.11C10.0365 270.302 10.1325 270.537 10.1325 270.814C10.1325 271.092 10.0365 271.326 9.84448 271.518C9.66314 271.71 9.43914 271.806 9.17248 271.806ZM9.87648 273.23V281.998H8.42048V273.23H9.87648ZM11.814 277.598C11.814 276.692 11.9953 275.902 12.358 275.23C12.7206 274.548 13.222 274.02 13.862 273.646C14.5126 273.273 15.254 273.086 16.086 273.086C17.1633 273.086 18.0486 273.348 18.742 273.87C19.446 274.393 19.91 275.118 20.134 276.046H18.566C18.4166 275.513 18.1233 275.092 17.686 274.782C17.2593 274.473 16.726 274.318 16.086 274.318C15.254 274.318 14.582 274.606 14.07 275.182C13.558 275.748 13.302 276.553 13.302 277.598C13.302 278.654 13.558 279.47 14.07 280.046C14.582 280.622 15.254 280.91 16.086 280.91C16.726 280.91 17.2593 280.761 17.686 280.462C18.1126 280.164 18.406 279.737 18.566 279.182H20.134C19.8993 280.078 19.43 280.798 18.726 281.342C18.022 281.876 17.142 282.142 16.086 282.142C15.254 282.142 14.5126 281.956 13.862 281.582C13.222 281.209 12.7206 280.681 12.358 279.998C11.9953 279.316 11.814 278.516 11.814 277.598ZM25.9007 282.142C25.0794 282.142 24.3327 281.956 23.6607 281.582C22.9994 281.209 22.4767 280.681 22.0927 279.998C21.7194 279.305 21.5327 278.505 21.5327 277.598C21.5327 276.702 21.7247 275.913 22.1087 275.23C22.5034 274.537 23.0367 274.009 23.7087 273.646C24.3807 273.273 25.1327 273.086 25.9647 273.086C26.7967 273.086 27.5487 273.273 28.2207 273.646C28.8927 274.009 29.4207 274.532 29.8047 275.214C30.1994 275.897 30.3967 276.692 30.3967 277.598C30.3967 278.505 30.1941 279.305 29.7887 279.998C29.3941 280.681 28.8554 281.209 28.1727 281.582C27.4901 281.956 26.7327 282.142 25.9007 282.142ZM25.9007 280.862C26.4234 280.862 26.9141 280.74 27.3727 280.494C27.8314 280.249 28.1994 279.881 28.4767 279.39C28.7647 278.9 28.9087 278.302 28.9087 277.598C28.9087 276.894 28.7701 276.297 28.4927 275.806C28.2154 275.316 27.8527 274.953 27.4047 274.718C26.9567 274.473 26.4714 274.35 25.9487 274.35C25.4154 274.35 24.9247 274.473 24.4767 274.718C24.0394 274.953 23.6874 275.316 23.4207 275.806C23.1541 276.297 23.0207 276.894 23.0207 277.598C23.0207 278.313 23.1487 278.916 23.4047 279.406C23.6714 279.897 24.0234 280.265 24.4607 280.51C24.8981 280.745 25.3781 280.862 25.9007 280.862ZM33.7671 274.654C34.0231 274.153 34.3858 273.764 34.8551 273.486C35.3351 273.209 35.9164 273.07 36.5991 273.07V274.574H36.2151C34.5831 274.574 33.7671 275.46 33.7671 277.23V281.998H32.3111V273.23H33.7671V274.654ZM39.0319 271.806C38.7545 271.806 38.5199 271.71 38.3279 271.518C38.1359 271.326 38.0399 271.092 38.0399 270.814C38.0399 270.537 38.1359 270.302 38.3279 270.11C38.5199 269.918 38.7545 269.822 39.0319 269.822C39.2985 269.822 39.5225 269.918 39.7039 270.11C39.8959 270.302 39.9919 270.537 39.9919 270.814C39.9919 271.092 39.8959 271.326 39.7039 271.518C39.5225 271.71 39.2985 271.806 39.0319 271.806ZM39.7359 273.23V281.998H38.2799V273.23H39.7359ZM41.6734 277.598C41.6734 276.692 41.8547 275.902 42.2174 275.23C42.58 274.548 43.0814 274.02 43.7214 273.646C44.372 273.273 45.1134 273.086 45.9454 273.086C47.0227 273.086 47.908 273.348 48.6014 273.87C49.3054 274.393 49.7694 275.118 49.9934 276.046H48.4254C48.276 275.513 47.9827 275.092 47.5454 274.782C47.1187 274.473 46.5854 274.318 45.9454 274.318C45.1134 274.318 44.4414 274.606 43.9294 275.182C43.4174 275.748 43.1614 276.553 43.1614 277.598C43.1614 278.654 43.4174 279.47 43.9294 280.046C44.4414 280.622 45.1134 280.91 45.9454 280.91C46.5854 280.91 47.1187 280.761 47.5454 280.462C47.972 280.164 48.2654 279.737 48.4254 279.182H49.9934C49.7587 280.078 49.2894 280.798 48.5854 281.342C47.8814 281.876 47.0014 282.142 45.9454 282.142C45.1134 282.142 44.372 281.956 43.7214 281.582C43.0814 281.209 42.58 280.681 42.2174 279.998C41.8547 279.316 41.6734 278.516 41.6734 277.598ZM59.9361 277.278C59.9361 277.556 59.9201 277.849 59.8881 278.158H52.8801C52.9334 279.022 53.2268 279.7 53.7601 280.19C54.3041 280.67 54.9601 280.91 55.7281 280.91C56.3574 280.91 56.8801 280.766 57.2961 280.478C57.7228 280.18 58.0214 279.785 58.1921 279.294H59.7601C59.5254 280.137 59.0561 280.825 58.3521 281.358C57.6481 281.881 56.7734 282.142 55.7281 282.142C54.8961 282.142 54.1494 281.956 53.4881 281.582C52.8374 281.209 52.3254 280.681 51.9521 279.998C51.5788 279.305 51.3921 278.505 51.3921 277.598C51.3921 276.692 51.5734 275.897 51.9361 275.214C52.2988 274.532 52.8054 274.009 53.4561 273.646C54.1174 273.273 54.8748 273.086 55.7281 273.086C56.5601 273.086 57.2961 273.268 57.9361 273.63C58.5761 273.993 59.0668 274.494 59.4081 275.134C59.7601 275.764 59.9361 276.478 59.9361 277.278ZM58.4321 276.974C58.4321 276.42 58.3094 275.945 58.0641 275.55C57.8188 275.145 57.4828 274.841 57.0561 274.638C56.6401 274.425 56.1761 274.318 55.6641 274.318C54.9281 274.318 54.2988 274.553 53.7761 275.022C53.2641 275.492 52.9708 276.142 52.8961 276.974H58.4321ZM67.5796 274.654C67.8356 274.153 68.1983 273.764 68.6676 273.486C69.1476 273.209 69.7289 273.07 70.4116 273.07V274.574H70.0276C68.3956 274.574 67.5796 275.46 67.5796 277.23V281.998H66.1236V273.23H67.5796V274.654ZM75.9164 282.142C75.095 282.142 74.3484 281.956 73.6764 281.582C73.015 281.209 72.4924 280.681 72.1084 279.998C71.735 279.305 71.5484 278.505 71.5484 277.598C71.5484 276.702 71.7404 275.913 72.1244 275.23C72.519 274.537 73.0524 274.009 73.7244 273.646C74.3964 273.273 75.1484 273.086 75.9804 273.086C76.8124 273.086 77.5644 273.273 78.2364 273.646C78.9084 274.009 79.4364 274.532 79.8204 275.214C80.215 275.897 80.4124 276.692 80.4124 277.598C80.4124 278.505 80.2097 279.305 79.8044 279.998C79.4097 280.681 78.871 281.209 78.1884 281.582C77.5057 281.956 76.7484 282.142 75.9164 282.142ZM75.9164 280.862C76.439 280.862 76.9297 280.74 77.3884 280.494C77.847 280.249 78.215 279.881 78.4924 279.39C78.7804 278.9 78.9244 278.302 78.9244 277.598C78.9244 276.894 78.7857 276.297 78.5084 275.806C78.231 275.316 77.8684 274.953 77.4204 274.718C76.9724 274.473 76.487 274.35 75.9644 274.35C75.431 274.35 74.9404 274.473 74.4924 274.718C74.055 274.953 73.703 275.316 73.4364 275.806C73.1697 276.297 73.0364 276.894 73.0364 277.598C73.0364 278.313 73.1644 278.916 73.4204 279.406C73.687 279.897 74.039 280.265 74.4764 280.51C74.9137 280.745 75.3937 280.862 75.9164 280.862ZM86.1507 282.142C85.3294 282.142 84.5827 281.956 83.9107 281.582C83.2494 281.209 82.7267 280.681 82.3427 279.998C81.9694 279.305 81.7827 278.505 81.7827 277.598C81.7827 276.702 81.9747 275.913 82.3587 275.23C82.7534 274.537 83.2867 274.009 83.9587 273.646C84.6307 273.273 85.3827 273.086 86.2147 273.086C87.0467 273.086 87.7987 273.273 88.4707 273.646C89.1427 274.009 89.6707 274.532 90.0547 275.214C90.4494 275.897 90.6467 276.692 90.6467 277.598C90.6467 278.505 90.4441 279.305 90.0387 279.998C89.6441 280.681 89.1054 281.209 88.4227 281.582C87.7401 281.956 86.9827 282.142 86.1507 282.142ZM86.1507 280.862C86.6734 280.862 87.1641 280.74 87.6227 280.494C88.0814 280.249 88.4494 279.881 88.7267 279.39C89.0147 278.9 89.1587 278.302 89.1587 277.598C89.1587 276.894 89.0201 276.297 88.7427 275.806C88.4654 275.316 88.1027 274.953 87.6547 274.718C87.2067 274.473 86.7214 274.35 86.1987 274.35C85.6654 274.35 85.1747 274.473 84.7267 274.718C84.2894 274.953 83.9374 275.316 83.6707 275.806C83.4041 276.297 83.2707 276.894 83.2707 277.598C83.2707 278.313 83.3987 278.916 83.6547 279.406C83.9214 279.897 84.2734 280.265 84.7107 280.51C85.1481 280.745 85.6281 280.862 86.1507 280.862ZM94.3371 274.43V279.598C94.3371 280.025 94.4278 280.329 94.6091 280.51C94.7904 280.681 95.1051 280.766 95.5531 280.766H96.6251V281.998H95.3131C94.5024 281.998 93.8944 281.812 93.4891 281.438C93.0838 281.065 92.8811 280.452 92.8811 279.598V274.43H91.7451V273.23H92.8811V271.022H94.3371V273.23H96.6251V274.43H94.3371Z" fill="#333333"/>
<path d="M34.3626 343.846V345.03H31.3226V354.998H29.8666V345.03H26.8106V343.846H34.3626ZM43.9309 346.23V354.998H42.4749V353.702C42.1975 354.15 41.8082 354.502 41.3069 354.758C40.8162 355.004 40.2722 355.126 39.6749 355.126C38.9922 355.126 38.3789 354.988 37.8349 354.71C37.2909 354.422 36.8589 353.996 36.5389 353.43C36.2295 352.865 36.0749 352.177 36.0749 351.366V346.23H37.5149V351.174C37.5149 352.038 37.7335 352.705 38.1709 353.174C38.6082 353.633 39.2055 353.862 39.9629 353.862C40.7415 353.862 41.3549 353.622 41.8029 353.142C42.2509 352.662 42.4749 351.964 42.4749 351.046V346.23H43.9309ZM47.8452 347.654C48.1012 347.153 48.4639 346.764 48.9332 346.486C49.4132 346.209 49.9946 346.07 50.6772 346.07V347.574H50.2932C48.6612 347.574 47.8452 348.46 47.8452 350.23V354.998H46.3892V346.23H47.8452V347.654ZM62.902 346.07C63.5846 346.07 64.1926 346.214 64.726 346.502C65.2593 346.78 65.6806 347.201 65.99 347.766C66.2993 348.332 66.454 349.02 66.454 349.83V354.998H65.014V350.038C65.014 349.164 64.7953 348.497 64.358 348.038C63.9313 347.569 63.35 347.334 62.614 347.334C61.8566 347.334 61.254 347.58 60.806 348.07C60.358 348.55 60.134 349.249 60.134 350.166V354.998H58.694V350.038C58.694 349.164 58.4753 348.497 58.038 348.038C57.6113 347.569 57.03 347.334 56.294 347.334C55.5366 347.334 54.934 347.58 54.486 348.07C54.038 348.55 53.814 349.249 53.814 350.166V354.998H52.358V346.23H53.814V347.494C54.102 347.036 54.486 346.684 54.966 346.438C55.4566 346.193 55.9953 346.07 56.582 346.07C57.318 346.07 57.9686 346.236 58.534 346.566C59.0993 346.897 59.5206 347.382 59.798 348.022C60.0433 347.404 60.4486 346.924 61.014 346.582C61.5793 346.241 62.2086 346.07 62.902 346.07ZM76.8424 350.278C76.8424 350.556 76.8264 350.849 76.7944 351.158H69.7864C69.8397 352.022 70.133 352.7 70.6664 353.19C71.2104 353.67 71.8664 353.91 72.6344 353.91C73.2637 353.91 73.7864 353.766 74.2024 353.478C74.629 353.18 74.9277 352.785 75.0984 352.294H76.6664C76.4317 353.137 75.9624 353.825 75.2584 354.358C74.5544 354.881 73.6797 355.142 72.6344 355.142C71.8024 355.142 71.0557 354.956 70.3944 354.582C69.7437 354.209 69.2317 353.681 68.8584 352.998C68.485 352.305 68.2984 351.505 68.2984 350.598C68.2984 349.692 68.4797 348.897 68.8424 348.214C69.205 347.532 69.7117 347.009 70.3624 346.646C71.0237 346.273 71.781 346.086 72.6344 346.086C73.4664 346.086 74.2024 346.268 74.8424 346.63C75.4824 346.993 75.973 347.494 76.3144 348.134C76.6664 348.764 76.8424 349.478 76.8424 350.278ZM75.3384 349.974C75.3384 349.42 75.2157 348.945 74.9704 348.55C74.725 348.145 74.389 347.841 73.9624 347.638C73.5464 347.425 73.0824 347.318 72.5704 347.318C71.8344 347.318 71.205 347.553 70.6824 348.022C70.1704 348.492 69.877 349.142 69.8024 349.974H75.3384ZM80.2202 347.654C80.4762 347.153 80.8389 346.764 81.3082 346.486C81.7882 346.209 82.3696 346.07 83.0522 346.07V347.574H82.6682C81.0362 347.574 80.2202 348.46 80.2202 350.23V354.998H78.7642V346.23H80.2202V347.654ZM85.485 344.806C85.2076 344.806 84.973 344.71 84.781 344.518C84.589 344.326 84.493 344.092 84.493 343.814C84.493 343.537 84.589 343.302 84.781 343.11C84.973 342.918 85.2076 342.822 85.485 342.822C85.7516 342.822 85.9756 342.918 86.157 343.11C86.349 343.302 86.445 343.537 86.445 343.814C86.445 344.092 86.349 344.326 86.157 344.518C85.9756 344.71 85.7516 344.806 85.485 344.806ZM86.189 346.23V354.998H84.733V346.23H86.189ZM88.1265 350.598C88.1265 349.692 88.3078 348.902 88.6705 348.23C89.0331 347.548 89.5345 347.02 90.1745 346.646C90.8251 346.273 91.5665 346.086 92.3985 346.086C93.4758 346.086 94.3611 346.348 95.0545 346.87C95.7585 347.393 96.2225 348.118 96.4465 349.046H94.8785C94.7291 348.513 94.4358 348.092 93.9985 347.782C93.5718 347.473 93.0385 347.318 92.3985 347.318C91.5665 347.318 90.8945 347.606 90.3825 348.182C89.8705 348.748 89.6145 349.553 89.6145 350.598C89.6145 351.654 89.8705 352.47 90.3825 353.046C90.8945 353.622 91.5665 353.91 92.3985 353.91C93.0385 353.91 93.5718 353.761 93.9985 353.462C94.4251 353.164 94.7185 352.737 94.8785 352.182H96.4465C96.2118 353.078 95.7425 353.798 95.0385 354.342C94.3345 354.876 93.4545 355.142 92.3985 355.142C91.5665 355.142 90.8251 354.956 90.1745 354.582C89.5345 354.209 89.0331 353.681 88.6705 352.998C88.3078 352.316 88.1265 351.516 88.1265 350.598Z" fill="#333333"/>
<defs>
<clipPath id="clip0_21779_892">
<rect width="398" height="397" fill="white" transform="translate(117.157 0.998291)"/>
</clipPath>
</defs>
</svg>
