<svg width="596" height="398" viewBox="0 0 596 398" fill="none" xmlns="http://www.w3.org/2000/svg">
<g clip-path="url(#clip0_17506_26)">
<path fill-rule="evenodd" clip-rule="evenodd" d="M214.868 14.875C358.779 -4.23708 441.726 -5.66674 595.133 14.8751L596 14.9912V15.8663V82.2515V83.2515H595H586.927V113.697V114.697H585.927H570.735C570.665 115.069 570.575 115.562 570.477 116.153C570.244 117.56 569.965 119.519 569.778 121.726C569.402 126.182 569.423 131.482 570.853 135.309C572.376 139.39 576.228 143.748 579.817 147.152C581.594 148.837 583.272 150.257 584.507 151.256C585.124 151.755 585.629 152.148 585.979 152.415C586.153 152.549 586.289 152.651 586.381 152.72L586.421 152.75L586.484 152.797L586.51 152.815L586.516 152.82H586.517L586.513 152.826L586.517 152.821L586.927 153.12V153.628V179.082H595H596V180.082V339.307V340.307H595H586.927V376.243V377.055L586.132 377.222C460.233 403.576 379.765 403.617 225.506 377.229L224.674 377.087V376.243V340.307H215H214V339.307V180.082V179.082H215H224.674V153.628V153.045L225.182 152.758C226.051 152.266 226.943 151.783 227.843 151.297C230.642 149.784 233.513 148.232 236.004 146.226C239.243 143.619 241.716 140.329 242.294 135.539L242.295 135.529L242.297 135.518C243.225 129.01 243.36 124.558 242.382 114.697H225.674H224.674V113.697V83.2515H215H214V82.2515V15.8663V14.9903L214.868 14.875ZM226.674 340.419C373.407 356.01 452.271 356.026 584.927 340.432V375.43C460.002 401.51 379.87 401.556 226.674 375.399V340.419ZM244.392 114.697H568.701C568.642 115.019 568.575 115.398 568.504 115.827C568.265 117.272 567.977 119.286 567.785 121.558C567.537 124.497 567.442 127.94 567.851 131.165H244.824C245.226 126.57 245.123 122.128 244.392 114.697ZM244.62 133.165H568.178C568.382 134.159 568.645 135.115 568.979 136.009C570.675 140.552 574.829 145.178 578.441 148.603C580.265 150.333 581.985 151.788 583.249 152.811C583.882 153.322 584.401 153.727 584.763 154.004C584.822 154.049 584.877 154.09 584.927 154.128V179.707C445.559 186.462 366.512 185.947 226.674 179.626V154.214C227.314 153.858 227.98 153.498 228.662 153.13L228.666 153.128L228.667 153.127L228.675 153.123L228.678 153.121C231.509 151.591 234.61 149.916 237.259 147.784C240.773 144.955 243.618 141.235 244.278 135.79C244.407 134.883 244.521 134.014 244.62 133.165ZM569.916 112.697H584.927V83.2512H226.674V112.697H243.286H569.916ZM225.674 81.2515V81.2512H585.927V81.2515H594V16.7414C441.641 -3.61303 358.94 -2.20223 216 16.7424V81.2515H225.674ZM225.629 181.58L225.651 181.082H216V338.307H225.674H225.727L225.78 338.313C373.503 354.051 452.308 354.06 585.81 338.314L585.868 338.307H585.927H594V181.082H587.553L587.577 181.58C446.229 188.485 366.97 187.984 225.629 181.58Z" fill="#344F10"/>
<path d="M54.5461 53.0002L49.954 47.9122V53.0002H48.498V41.8482H49.954V47.0162L54.562 41.8482H56.402L51.346 47.4322L56.45 53.0002H54.5461ZM57.532 48.5842C57.532 47.6882 57.713 46.9042 58.076 46.2322C58.438 45.5495 58.934 45.0215 59.564 44.6482C60.204 44.2749 60.913 44.0882 61.692 44.0882C62.46 44.0882 63.126 44.2535 63.692 44.5842C64.257 44.9149 64.678 45.3309 64.956 45.8322V44.2322H66.428V53.0002H64.956V51.3682C64.668 51.8802 64.236 52.3069 63.66 52.6482C63.094 52.9789 62.433 53.1442 61.676 53.1442C60.897 53.1442 60.193 52.9522 59.564 52.5682C58.934 52.1842 58.438 51.6455 58.076 50.9522C57.713 50.2589 57.532 49.4695 57.532 48.5842ZM64.956 48.6002C64.956 47.9389 64.822 47.3629 64.556 46.8722C64.289 46.3815 63.926 46.0082 63.468 45.7522C63.02 45.4855 62.524 45.3522 61.98 45.3522C61.436 45.3522 60.9401 45.4802 60.4921 45.7362C60.0441 45.9922 59.686 46.3655 59.42 46.8562C59.153 47.3469 59.0201 47.9229 59.0201 48.5842C59.0201 49.2562 59.153 49.8429 59.42 50.3442C59.686 50.8349 60.0441 51.2135 60.4921 51.4802C60.9401 51.7362 61.436 51.8642 61.98 51.8642C62.524 51.8642 63.02 51.7362 63.468 51.4802C63.926 51.2135 64.289 50.8349 64.556 50.3442C64.822 49.8429 64.956 49.2615 64.956 48.6002ZM72.7121 53.1442C71.8911 53.1442 71.144 52.9575 70.472 52.5842C69.811 52.2109 69.2881 51.6829 68.9041 51.0002C68.5311 50.3069 68.344 49.5069 68.344 48.6002C68.344 47.7042 68.536 46.9149 68.92 46.2322C69.315 45.5389 69.8481 45.0109 70.5201 44.6482C71.1921 44.2749 71.944 44.0882 72.776 44.0882C73.608 44.0882 74.36 44.2749 75.032 44.6482C75.704 45.0109 76.232 45.5335 76.616 46.2162C77.011 46.8989 77.208 47.6935 77.208 48.6002C77.208 49.5069 77.0061 50.3069 76.6001 51.0002C76.2061 51.6829 75.667 52.2109 74.984 52.5842C74.302 52.9575 73.5441 53.1442 72.7121 53.1442ZM72.7121 51.8642C73.2351 51.8642 73.7261 51.7415 74.1841 51.4962C74.6431 51.2509 75.011 50.8829 75.288 50.3922C75.576 49.9015 75.72 49.3042 75.72 48.6002C75.72 47.8962 75.582 47.2989 75.304 46.8082C75.027 46.3175 74.664 45.9549 74.216 45.7202C73.768 45.4749 73.283 45.3522 72.76 45.3522C72.227 45.3522 71.736 45.4749 71.288 45.7202C70.851 45.9549 70.499 46.3175 70.232 46.8082C69.966 47.2989 69.832 47.8962 69.832 48.6002C69.832 49.3149 69.96 49.9175 70.216 50.4082C70.483 50.8989 70.835 51.2669 71.272 51.5122C71.71 51.7469 72.1901 51.8642 72.7121 51.8642ZM80.579 41.1602V53.0002H79.123V41.1602H80.579ZM83.812 42.8082C83.535 42.8082 83.3 42.7122 83.108 42.5202C82.916 42.3282 82.8201 42.0935 82.8201 41.8162C82.8201 41.5389 82.916 41.3042 83.108 41.1122C83.3 40.9202 83.535 40.8242 83.812 40.8242C84.079 40.8242 84.303 40.9202 84.484 41.1122C84.676 41.3042 84.772 41.5389 84.772 41.8162C84.772 42.0935 84.676 42.3282 84.484 42.5202C84.303 42.7122 84.079 42.8082 83.812 42.8082ZM84.5161 44.2322V53.0002H83.06V44.2322H84.5161ZM91.2701 44.0722C92.3361 44.0722 93.2 44.3975 93.862 45.0482C94.523 45.6882 94.854 46.6162 94.854 47.8322V53.0002H93.414V48.0402C93.414 47.1655 93.195 46.4989 92.758 46.0402C92.32 45.5709 91.723 45.3362 90.966 45.3362C90.198 45.3362 89.5841 45.5762 89.1261 46.0562C88.6781 46.5362 88.454 47.2349 88.454 48.1522V53.0002H86.998V44.2322H88.454V45.4802C88.742 45.0322 89.131 44.6855 89.622 44.4402C90.123 44.1949 90.6721 44.0722 91.2701 44.0722Z" fill="#333333"/>
<path d="M59.4239 129.112C58.6879 129.112 58.0269 128.984 57.4399 128.728C56.8639 128.461 56.4109 128.099 56.0799 127.64C55.7499 127.171 55.5789 126.632 55.5679 126.024H57.1199C57.1739 126.547 57.3869 126.989 57.7599 127.352C58.1439 127.704 58.6989 127.88 59.4239 127.88C60.1179 127.88 60.6619 127.709 61.0559 127.368C61.4619 127.016 61.6639 126.568 61.6639 126.024C61.6639 125.597 61.5469 125.251 61.3119 124.984C61.0779 124.717 60.7839 124.515 60.4319 124.376C60.0799 124.237 59.6059 124.088 59.0079 123.928C58.2719 123.736 57.6799 123.544 57.2319 123.352C56.7949 123.16 56.4159 122.861 56.0959 122.456C55.7869 122.04 55.6319 121.485 55.6319 120.792C55.6319 120.184 55.7869 119.645 56.0959 119.176C56.4059 118.707 56.8379 118.344 57.3919 118.088C57.9579 117.832 58.6029 117.704 59.3279 117.704C60.3739 117.704 61.2269 117.965 61.8879 118.488C62.5599 119.011 62.9389 119.704 63.0239 120.568H61.4239C61.3709 120.141 61.1469 119.768 60.7519 119.448C60.3579 119.117 59.8349 118.952 59.1839 118.952C58.5759 118.952 58.0799 119.112 57.6959 119.432C57.3119 119.741 57.1199 120.179 57.1199 120.744C57.1199 121.149 57.2319 121.48 57.4559 121.736C57.6909 121.992 57.9739 122.189 58.3039 122.328C58.6459 122.456 59.1199 122.605 59.7279 122.776C60.4639 122.979 61.0559 123.181 61.5039 123.384C61.9519 123.576 62.3359 123.88 62.6559 124.296C62.9759 124.701 63.1359 125.256 63.1359 125.96C63.1359 126.504 62.9919 127.016 62.7039 127.496C62.4159 127.976 61.9899 128.365 61.4239 128.664C60.8589 128.963 60.1919 129.112 59.4239 129.112ZM66.0309 118.808C65.7539 118.808 65.5189 118.712 65.3269 118.52C65.1349 118.328 65.0389 118.093 65.0389 117.816C65.0389 117.539 65.1349 117.304 65.3269 117.112C65.5189 116.92 65.7539 116.824 66.0309 116.824C66.2979 116.824 66.5219 116.92 66.7029 117.112C66.8949 117.304 66.9909 117.539 66.9909 117.816C66.9909 118.093 66.8949 118.328 66.7029 118.52C66.5219 118.712 66.2979 118.808 66.0309 118.808ZM66.7349 120.232V129H65.2789V120.232H66.7349ZM72.4799 127.656L75.1999 120.232H76.7519L73.3119 129H71.6159L68.1759 120.232H69.7439L72.4799 127.656ZM77.6409 124.584C77.6409 123.688 77.8219 122.904 78.1849 122.232C78.5479 121.549 79.0439 121.021 79.6729 120.648C80.3129 120.275 81.0219 120.088 81.8009 120.088C82.5689 120.088 83.2359 120.253 83.8009 120.584C84.3659 120.915 84.7879 121.331 85.0649 121.832V120.232H86.5369V129H85.0649V127.368C84.7769 127.88 84.3449 128.307 83.7689 128.648C83.2039 128.979 82.5419 129.144 81.7849 129.144C81.0059 129.144 80.3019 128.952 79.6729 128.568C79.0439 128.184 78.5479 127.645 78.1849 126.952C77.8219 126.259 77.6409 125.469 77.6409 124.584ZM85.0649 124.6C85.0649 123.939 84.9319 123.363 84.6649 122.872C84.3979 122.381 84.0359 122.008 83.5769 121.752C83.1289 121.485 82.6329 121.352 82.0889 121.352C81.5449 121.352 81.0489 121.48 80.6009 121.736C80.1529 121.992 79.7959 122.365 79.5289 122.856C79.2619 123.347 79.1289 123.923 79.1289 124.584C79.1289 125.256 79.2619 125.843 79.5289 126.344C79.7959 126.835 80.1529 127.213 80.6009 127.48C81.0489 127.736 81.5449 127.864 82.0889 127.864C82.6329 127.864 83.1289 127.736 83.5769 127.48C84.0359 127.213 84.3979 126.835 84.6649 126.344C84.9319 125.843 85.0649 125.261 85.0649 124.6ZM93.8939 129L90.4539 125.128V129H88.9979V117.16H90.4539V124.12L93.8299 120.232H95.8619L91.7339 124.6L95.8779 129H93.8939Z" fill="#333333"/>
<path d="M29.2041 196.418C29.2041 195.33 29.4491 194.354 29.9401 193.49C30.4301 192.615 31.0971 191.932 31.9401 191.442C32.7931 190.951 33.7371 190.706 34.7721 190.706C35.9881 190.706 37.0491 190.999 37.9561 191.586C38.8621 192.172 39.5241 193.004 39.9401 194.082H38.1961C37.8861 193.41 37.4381 192.892 36.8521 192.53C36.2761 192.167 35.5821 191.986 34.7721 191.986C33.9931 191.986 33.2941 192.167 32.6761 192.53C32.0571 192.892 31.5721 193.41 31.2201 194.082C30.8681 194.743 30.6921 195.522 30.6921 196.418C30.6921 197.303 30.8681 198.082 31.2201 198.754C31.5721 199.415 32.0571 199.927 32.6761 200.29C33.2941 200.652 33.9931 200.834 34.7721 200.834C35.5821 200.834 36.2761 200.658 36.8521 200.306C37.4381 199.943 37.8861 199.426 38.1961 198.754H39.9401C39.5241 199.82 38.8621 200.647 37.9561 201.234C37.0491 201.81 35.9881 202.098 34.7721 202.098C33.7371 202.098 32.7931 201.858 31.9401 201.378C31.0971 200.887 30.4301 200.21 29.9401 199.346C29.4491 198.482 29.2041 197.506 29.2041 196.418ZM41.5631 197.586C41.5631 196.69 41.7441 195.906 42.1071 195.234C42.4701 194.551 42.9661 194.023 43.5951 193.65C44.2351 193.276 44.9441 193.09 45.7231 193.09C46.4911 193.09 47.1581 193.255 47.7231 193.586C48.2881 193.916 48.7101 194.332 48.9871 194.834V193.234H50.4591V202.002H48.9871V200.37C48.6991 200.882 48.2671 201.308 47.6911 201.65C47.1261 201.98 46.4641 202.146 45.7071 202.146C44.9281 202.146 44.2241 201.954 43.5951 201.57C42.9661 201.186 42.4701 200.647 42.1071 199.954C41.7441 199.26 41.5631 198.471 41.5631 197.586ZM48.9871 197.602C48.9871 196.94 48.8541 196.364 48.5871 195.874C48.3201 195.383 47.9581 195.01 47.4991 194.754C47.0511 194.487 46.5551 194.354 46.0111 194.354C45.4671 194.354 44.9711 194.482 44.5231 194.738C44.0751 194.994 43.7181 195.367 43.4511 195.858C43.1841 196.348 43.0511 196.924 43.0511 197.586C43.0511 198.258 43.1841 198.844 43.4511 199.346C43.7181 199.836 44.0751 200.215 44.5231 200.482C44.9711 200.738 45.4671 200.866 46.0111 200.866C46.5551 200.866 47.0511 200.738 47.4991 200.482C47.9581 200.215 48.3201 199.836 48.5871 199.346C48.8541 198.844 48.9871 198.263 48.9871 197.602ZM54.3761 190.162V202.002H52.9201V190.162H54.3761ZM56.3131 197.602C56.3131 196.695 56.4941 195.906 56.8571 195.234C57.2201 194.551 57.7211 194.023 58.3611 193.65C59.0121 193.276 59.7531 193.09 60.5851 193.09C61.6621 193.09 62.5481 193.351 63.2411 193.874C63.9451 194.396 64.4091 195.122 64.6331 196.05H63.0651C62.9161 195.516 62.6221 195.095 62.1851 194.786C61.7581 194.476 61.2251 194.322 60.5851 194.322C59.7531 194.322 59.0811 194.61 58.5691 195.186C58.0571 195.751 57.8011 196.556 57.8011 197.602C57.8011 198.658 58.0571 199.474 58.5691 200.05C59.0811 200.626 59.7531 200.914 60.5851 200.914C61.2251 200.914 61.7581 200.764 62.1851 200.466C62.6121 200.167 62.9051 199.74 63.0651 199.186H64.6331C64.3981 200.082 63.9291 200.802 63.2251 201.346C62.5211 201.879 61.6411 202.146 60.5851 202.146C59.7531 202.146 59.0121 201.959 58.3611 201.586C57.7211 201.212 57.2201 200.684 56.8571 200.002C56.4941 199.319 56.3131 198.519 56.3131 197.602ZM67.3281 191.81C67.0501 191.81 66.8161 191.714 66.6241 191.522C66.4321 191.33 66.3361 191.095 66.3361 190.818C66.3361 190.54 66.4321 190.306 66.6241 190.114C66.8161 189.922 67.0501 189.826 67.3281 189.826C67.5941 189.826 67.8181 189.922 68.0001 190.114C68.1921 190.306 68.2881 190.54 68.2881 190.818C68.2881 191.095 68.1921 191.33 68.0001 191.522C67.8181 191.714 67.5941 191.81 67.3281 191.81ZM68.0321 193.234V202.002H66.5761V193.234H68.0321ZM78.2891 193.234V202.002H76.8331V200.706C76.5561 201.154 76.1671 201.506 75.6651 201.762C75.1751 202.007 74.6311 202.13 74.0331 202.13C73.3511 202.13 72.7371 201.991 72.1931 201.714C71.6491 201.426 71.2171 200.999 70.8971 200.434C70.5881 199.868 70.4331 199.18 70.4331 198.37V193.234H71.8731V198.178C71.8731 199.042 72.0921 199.708 72.5291 200.178C72.9671 200.636 73.5641 200.866 74.3211 200.866C75.1001 200.866 75.7131 200.626 76.1611 200.146C76.6091 199.666 76.8331 198.967 76.8331 198.05V193.234H78.2891ZM91.2921 193.074C91.9741 193.074 92.5821 193.218 93.1161 193.506C93.6491 193.783 94.0701 194.204 94.3801 194.77C94.6891 195.335 94.8441 196.023 94.8441 196.834V202.002H93.4041V197.042C93.4041 196.167 93.1851 195.5 92.7481 195.042C92.3211 194.572 91.7401 194.338 91.0041 194.338C90.2461 194.338 89.6441 194.583 89.1961 195.074C88.7481 195.554 88.5241 196.252 88.5241 197.17V202.002H87.0841V197.042C87.0841 196.167 86.8651 195.5 86.4281 195.042C86.0011 194.572 85.4201 194.338 84.6841 194.338C83.9261 194.338 83.3241 194.583 82.8761 195.074C82.4281 195.554 82.2041 196.252 82.2041 197.17V202.002H80.7481V193.234H82.2041V194.498C82.4921 194.039 82.8761 193.687 83.3561 193.442C83.8461 193.196 84.3851 193.074 84.9721 193.074C85.7081 193.074 86.3581 193.239 86.9241 193.57C87.4891 193.9 87.9101 194.386 88.1881 195.026C88.4331 194.407 88.8381 193.927 89.4041 193.586C89.9691 193.244 90.5981 193.074 91.2921 193.074Z" fill="#333333"/>
<path d="M193.5 48.0015C192.119 48.0015 191 49.1208 191 50.5015C191 51.8822 192.119 53.0015 193.5 53.0015C194.881 53.0015 196 51.8822 196 50.5015C196 49.1208 194.881 48.0015 193.5 48.0015Z" fill="#333333"/>
<path d="M193.5 121.002C192.119 121.002 191 122.121 191 123.502C191 124.883 192.119 126.002 193.5 126.002C194.881 126.002 196 124.883 196 123.502C196 122.121 194.881 121.002 193.5 121.002Z" fill="#333333"/>
<path d="M193.5 202.002C194.881 202.002 196 200.883 196 199.502C196 198.121 194.881 197.002 193.5 197.002C192.119 197.002 191 198.121 191 199.502C191 200.883 192.119 202.002 193.5 202.002Z" fill="#333333"/>
<path d="M116 51.0015L192 51.0015V50.0015L116 50.0015V51.0015Z" fill="#333333"/>
<path d="M116 124.002L192 124.002V123.002L116 123.002V124.002Z" fill="#333333"/>
<path d="M116 200.002H192V199.002H116V200.002Z" fill="#333333"/>
<path d="M193.5 202.002C194.881 202.002 196 200.883 196 199.502C196 198.121 194.881 197.002 193.5 197.002C192.119 197.002 191 198.121 191 199.502C191 200.883 192.119 202.002 193.5 202.002Z" fill="#333333"/>
<path d="M193.5 275.002C194.881 275.002 196 273.883 196 272.502C196 271.121 194.881 270.002 193.5 270.002C192.119 270.002 191 271.121 191 272.502C191 273.883 192.119 275.002 193.5 275.002Z" fill="#333333"/>
<path d="M116 273.002H192V272.002H116V273.002Z" fill="#333333"/>
<path d="M193.5 275.002C194.881 275.002 196 273.883 196 272.502C196 271.121 194.881 270.002 193.5 270.002C192.119 270.002 191 271.121 191 272.502C191 273.883 192.119 275.002 193.5 275.002Z" fill="#333333"/>
<path d="M193.5 275.002C194.881 275.002 196 273.883 196 272.502C196 271.121 194.881 270.002 193.5 270.002C192.119 270.002 191 271.121 191 272.502C191 273.883 192.119 275.002 193.5 275.002Z" fill="#333333"/>
<path d="M193.5 275.002C194.881 275.002 196 273.883 196 272.502C196 271.121 194.881 270.002 193.5 270.002C192.119 270.002 191 271.121 191 272.502C191 273.883 192.119 275.002 193.5 275.002Z" fill="#333333"/>
<path d="M193.5 347.002C194.881 347.002 196 345.883 196 344.502C196 343.121 194.881 342.002 193.5 342.002C192.119 342.002 191 343.121 191 344.502C191 345.883 192.119 347.002 193.5 347.002Z" fill="#333333"/>
<path d="M116 345.002H192V344.002H116V345.002Z" fill="#333333"/>
<path d="M193.5 347.002C194.881 347.002 196 345.883 196 344.502C196 343.121 194.881 342.002 193.5 342.002C192.119 342.002 191 343.121 191 344.502C191 345.883 192.119 347.002 193.5 347.002Z" fill="#333333"/>
<path d="M193.5 347.002C194.881 347.002 196 345.883 196 344.502C196 343.121 194.881 342.002 193.5 342.002C192.119 342.002 191 343.121 191 344.502C191 345.883 192.119 347.002 193.5 347.002Z" fill="#333333"/>
<path d="M193.5 347.002C194.881 347.002 196 345.883 196 344.502C196 343.121 194.881 342.002 193.5 342.002C192.119 342.002 191 343.121 191 344.502C191 345.883 192.119 347.002 193.5 347.002Z" fill="#333333"/>
<path d="M1.81293 276.818H5.71693V278.002H0.356934V266.85H1.81293V276.818ZM8.01523 267.81C7.73783 267.81 7.50323 267.714 7.31123 267.522C7.11923 267.33 7.02323 267.095 7.02323 266.818C7.02323 266.54 7.11923 266.306 7.31123 266.114C7.50323 265.922 7.73783 265.826 8.01523 265.826C8.28183 265.826 8.50583 265.922 8.68723 266.114C8.87923 266.306 8.97523 266.54 8.97523 266.818C8.97523 267.095 8.87923 267.33 8.68723 267.522C8.50583 267.714 8.28183 267.81 8.01523 267.81ZM8.71923 269.234V278.002H7.26323V269.234H8.71923ZM10.6567 273.602C10.6567 272.695 10.838 271.906 11.2007 271.234C11.5633 270.551 12.0647 270.023 12.7047 269.65C13.3553 269.276 14.0967 269.09 14.9287 269.09C16.0059 269.09 16.8909 269.351 17.5849 269.874C18.2889 270.396 18.7529 271.122 18.9769 272.05H17.4089C17.2589 271.516 16.9659 271.095 16.5289 270.786C16.1019 270.476 15.5687 270.322 14.9287 270.322C14.0967 270.322 13.4247 270.61 12.9127 271.186C12.4007 271.751 12.1447 272.556 12.1447 273.602C12.1447 274.658 12.4007 275.474 12.9127 276.05C13.4247 276.626 14.0967 276.914 14.9287 276.914C15.5687 276.914 16.1019 276.764 16.5289 276.466C16.9549 276.167 17.2489 275.74 17.4089 275.186H18.9769C18.7419 276.082 18.2729 276.802 17.5689 277.346C16.8649 277.879 15.9847 278.146 14.9287 278.146C14.0967 278.146 13.3553 277.959 12.7047 277.586C12.0647 277.212 11.5633 276.684 11.2007 276.002C10.838 275.319 10.6567 274.519 10.6567 273.602ZM24.7439 278.146C23.9219 278.146 23.1759 277.959 22.5039 277.586C21.8419 277.212 21.3199 276.684 20.9359 276.002C20.5619 275.308 20.3759 274.508 20.3759 273.602C20.3759 272.706 20.5679 271.916 20.9519 271.234C21.3459 270.54 21.8799 270.012 22.5519 269.65C23.2239 269.276 23.9759 269.09 24.8079 269.09C25.6399 269.09 26.3919 269.276 27.0639 269.65C27.7359 270.012 28.2639 270.535 28.6479 271.218C29.0419 271.9 29.2399 272.695 29.2399 273.602C29.2399 274.508 29.0369 275.308 28.6319 276.002C28.2369 276.684 27.6979 277.212 27.0159 277.586C26.3329 277.959 25.5759 278.146 24.7439 278.146ZM24.7439 276.866C25.2659 276.866 25.7569 276.743 26.2159 276.498C26.6739 276.252 27.0419 275.884 27.3199 275.394C27.6079 274.903 27.7519 274.306 27.7519 273.602C27.7519 272.898 27.6129 272.3 27.3359 271.81C27.0579 271.319 26.6959 270.956 26.2479 270.722C25.7999 270.476 25.3139 270.354 24.7919 270.354C24.2579 270.354 23.7679 270.476 23.3199 270.722C22.8819 270.956 22.5299 271.319 22.2639 271.81C21.9969 272.3 21.8639 272.898 21.8639 273.602C21.8639 274.316 21.9919 274.919 22.2479 275.41C22.5139 275.9 22.8659 276.268 23.3039 276.514C23.7409 276.748 24.2209 276.866 24.7439 276.866ZM32.6099 270.658C32.8659 270.156 33.2289 269.767 33.6979 269.49C34.1779 269.212 34.7589 269.074 35.4419 269.074V270.578H35.0579C33.4259 270.578 32.6099 271.463 32.6099 273.234V278.002H31.1539V269.234H32.6099V270.658ZM37.8749 267.81C37.5969 267.81 37.3629 267.714 37.1709 267.522C36.9789 267.33 36.8829 267.095 36.8829 266.818C36.8829 266.54 36.9789 266.306 37.1709 266.114C37.3629 265.922 37.5969 265.826 37.8749 265.826C38.1409 265.826 38.3649 265.922 38.5469 266.114C38.7389 266.306 38.8349 266.54 38.8349 266.818C38.8349 267.095 38.7389 267.33 38.5469 267.522C38.3649 267.714 38.1409 267.81 37.8749 267.81ZM38.5789 269.234V278.002H37.1229V269.234H38.5789ZM40.5159 273.602C40.5159 272.695 40.6969 271.906 41.0599 271.234C41.4229 270.551 41.9239 270.023 42.5639 269.65C43.2149 269.276 43.9559 269.09 44.7879 269.09C45.8649 269.09 46.7509 269.351 47.4439 269.874C48.1479 270.396 48.6119 271.122 48.8359 272.05H47.2679C47.1189 271.516 46.8249 271.095 46.3879 270.786C45.9609 270.476 45.4279 270.322 44.7879 270.322C43.9559 270.322 43.2839 270.61 42.7719 271.186C42.2599 271.751 42.0039 272.556 42.0039 273.602C42.0039 274.658 42.2599 275.474 42.7719 276.05C43.2839 276.626 43.9559 276.914 44.7879 276.914C45.4279 276.914 45.9609 276.764 46.3879 276.466C46.8149 276.167 47.1079 275.74 47.2679 275.186H48.8359C48.6009 276.082 48.1319 276.802 47.4279 277.346C46.7239 277.879 45.8439 278.146 44.7879 278.146C43.9559 278.146 43.2149 277.959 42.5639 277.586C41.9239 277.212 41.4229 276.684 41.0599 276.002C40.6969 275.319 40.5159 274.519 40.5159 273.602ZM58.7789 273.282C58.7789 273.559 58.7629 273.852 58.7309 274.162H51.7229C51.7759 275.026 52.0699 275.703 52.6029 276.194C53.1469 276.674 53.8029 276.914 54.5709 276.914C55.1999 276.914 55.7229 276.77 56.1389 276.482C56.5659 276.183 56.8639 275.788 57.0349 275.298H58.6029C58.3679 276.14 57.8989 276.828 57.1949 277.362C56.4909 277.884 55.6159 278.146 54.5709 278.146C53.7389 278.146 52.9919 277.959 52.3309 277.586C51.6799 277.212 51.1679 276.684 50.7949 276.002C50.4219 275.308 50.2349 274.508 50.2349 273.602C50.2349 272.695 50.4159 271.9 50.7789 271.218C51.1419 270.535 51.6479 270.012 52.2989 269.65C52.9599 269.276 53.7179 269.09 54.5709 269.09C55.4029 269.09 56.1389 269.271 56.7789 269.634C57.4189 269.996 57.9099 270.498 58.2509 271.138C58.6029 271.767 58.7789 272.482 58.7789 273.282ZM57.2749 272.978C57.2749 272.423 57.1519 271.948 56.9069 271.554C56.6619 271.148 56.3259 270.844 55.8989 270.642C55.4829 270.428 55.0189 270.322 54.5069 270.322C53.7709 270.322 53.1419 270.556 52.6189 271.026C52.1069 271.495 51.8139 272.146 51.7389 272.978H57.2749ZM66.4219 270.658C66.6779 270.156 67.0409 269.767 67.5099 269.49C67.9899 269.212 68.5719 269.074 69.2539 269.074V270.578H68.8699C67.2379 270.578 66.4219 271.463 66.4219 273.234V278.002H64.9659V269.234H66.4219V270.658ZM74.7589 278.146C73.9379 278.146 73.1909 277.959 72.5189 277.586C71.8579 277.212 71.3349 276.684 70.9509 276.002C70.5779 275.308 70.3909 274.508 70.3909 273.602C70.3909 272.706 70.5829 271.916 70.9669 271.234C71.3619 270.54 71.8949 270.012 72.5669 269.65C73.2389 269.276 73.9909 269.09 74.8229 269.09C75.6549 269.09 76.4069 269.276 77.0789 269.65C77.7509 270.012 78.2789 270.535 78.6629 271.218C79.0579 271.9 79.2549 272.695 79.2549 273.602C79.2549 274.508 79.0519 275.308 78.6469 276.002C78.2519 276.684 77.7139 277.212 77.0309 277.586C76.3479 277.959 75.5909 278.146 74.7589 278.146ZM74.7589 276.866C75.2819 276.866 75.7719 276.743 76.2309 276.498C76.6899 276.252 77.0579 275.884 77.3349 275.394C77.6229 274.903 77.7669 274.306 77.7669 273.602C77.7669 272.898 77.6279 272.3 77.3509 271.81C77.0739 271.319 76.7109 270.956 76.2629 270.722C75.8149 270.476 75.3299 270.354 74.8069 270.354C74.2739 270.354 73.7829 270.476 73.3349 270.722C72.8979 270.956 72.5459 271.319 72.2789 271.81C72.0119 272.3 71.8789 272.898 71.8789 273.602C71.8789 274.316 72.0069 274.919 72.2629 275.41C72.5299 275.9 72.8819 276.268 73.3189 276.514C73.7559 276.748 74.2359 276.866 74.7589 276.866ZM84.9939 278.146C84.1719 278.146 83.4259 277.959 82.7539 277.586C82.0919 277.212 81.5699 276.684 81.1859 276.002C80.8119 275.308 80.6259 274.508 80.6259 273.602C80.6259 272.706 80.8179 271.916 81.2019 271.234C81.5959 270.54 82.1299 270.012 82.8019 269.65C83.4739 269.276 84.2259 269.09 85.0579 269.09C85.8899 269.09 86.6419 269.276 87.3139 269.65C87.9859 270.012 88.5139 270.535 88.8979 271.218C89.2919 271.9 89.4899 272.695 89.4899 273.602C89.4899 274.508 89.2869 275.308 88.8819 276.002C88.4869 276.684 87.9479 277.212 87.2659 277.586C86.5829 277.959 85.8259 278.146 84.9939 278.146ZM84.9939 276.866C85.5159 276.866 86.0069 276.743 86.4659 276.498C86.9239 276.252 87.2919 275.884 87.5699 275.394C87.8579 274.903 88.0019 274.306 88.0019 273.602C88.0019 272.898 87.8629 272.3 87.5859 271.81C87.3079 271.319 86.9459 270.956 86.4979 270.722C86.0499 270.476 85.5639 270.354 85.0419 270.354C84.5079 270.354 84.0179 270.476 83.5699 270.722C83.1319 270.956 82.7799 271.319 82.5139 271.81C82.2469 272.3 82.1139 272.898 82.1139 273.602C82.1139 274.316 82.2419 274.919 82.4979 275.41C82.7639 275.9 83.1159 276.268 83.5539 276.514C83.9909 276.748 84.4709 276.866 84.9939 276.866ZM93.1799 270.434V275.602C93.1799 276.028 93.2709 276.332 93.4519 276.514C93.6329 276.684 93.9479 276.77 94.3959 276.77H95.4679V278.002H94.1559C93.3449 278.002 92.7369 277.815 92.3319 277.442C91.9269 277.068 91.7239 276.455 91.7239 275.602V270.434H90.5879V269.234H91.7239V267.026H93.1799V269.234H95.4679V270.434H93.1799Z" fill="#333333"/>
<path d="M33.2051 339.848V341.032H30.1651V351H28.7091V341.032H25.6531V339.848H33.2051ZM42.7741 342.232V351H41.3181V349.704C41.0401 350.152 40.6511 350.504 40.1501 350.76C39.6591 351.005 39.1151 351.128 38.5181 351.128C37.8351 351.128 37.2221 350.989 36.6781 350.712C36.1341 350.424 35.7021 349.997 35.3821 349.432C35.0721 348.867 34.9181 348.179 34.9181 347.368V342.232H36.3581V347.176C36.3581 348.04 36.5761 348.707 37.0141 349.176C37.4511 349.635 38.0481 349.864 38.8061 349.864C39.5841 349.864 40.1981 349.624 40.6461 349.144C41.0941 348.664 41.3181 347.965 41.3181 347.048V342.232H42.7741ZM46.6881 343.656C46.9441 343.155 47.3071 342.765 47.7761 342.488C48.2561 342.211 48.8371 342.072 49.5201 342.072V343.576H49.1361C47.5041 343.576 46.6881 344.461 46.6881 346.232V351H45.2321V342.232H46.6881V343.656ZM61.7451 342.072C62.4271 342.072 63.0351 342.216 63.5691 342.504C64.1021 342.781 64.5231 343.203 64.8331 343.768C65.1421 344.333 65.2971 345.021 65.2971 345.832V351H63.8571V346.04C63.8571 345.165 63.6381 344.499 63.2011 344.04C62.7741 343.571 62.1931 343.336 61.4571 343.336C60.6991 343.336 60.0971 343.581 59.6491 344.072C59.2011 344.552 58.9771 345.251 58.9771 346.168V351H57.5371V346.04C57.5371 345.165 57.3181 344.499 56.8811 344.04C56.4541 343.571 55.8731 343.336 55.1371 343.336C54.3791 343.336 53.7771 343.581 53.3291 344.072C52.8811 344.552 52.6571 345.251 52.6571 346.168V351H51.2011V342.232H52.6571V343.496C52.9451 343.037 53.3291 342.685 53.8091 342.44C54.2991 342.195 54.8381 342.072 55.4251 342.072C56.1611 342.072 56.8111 342.237 57.3771 342.568C57.9421 342.899 58.3631 343.384 58.6411 344.024C58.8861 343.405 59.2911 342.925 59.8571 342.584C60.4221 342.243 61.0511 342.072 61.7451 342.072ZM75.6851 346.28C75.6851 346.557 75.6691 346.851 75.6371 347.16H68.6291C68.6821 348.024 68.9761 348.701 69.5091 349.192C70.0531 349.672 70.7091 349.912 71.4771 349.912C72.1061 349.912 72.6291 349.768 73.0451 349.48C73.4721 349.181 73.7701 348.787 73.9411 348.296H75.5091C75.2741 349.139 74.8051 349.827 74.1011 350.36C73.3971 350.883 72.5221 351.144 71.4771 351.144C70.6451 351.144 69.8981 350.957 69.2371 350.584C68.5861 350.211 68.0741 349.683 67.7011 349C67.3281 348.307 67.1411 347.507 67.1411 346.6C67.1411 345.693 67.3221 344.899 67.6851 344.216C68.0481 343.533 68.5541 343.011 69.2051 342.648C69.8661 342.275 70.6241 342.088 71.4771 342.088C72.3091 342.088 73.0451 342.269 73.6851 342.632C74.3251 342.995 74.8161 343.496 75.1571 344.136C75.5091 344.765 75.6851 345.48 75.6851 346.28ZM74.1811 345.976C74.1811 345.421 74.0581 344.947 73.8131 344.552C73.5681 344.147 73.2321 343.843 72.8051 343.64C72.3891 343.427 71.9251 343.32 71.4131 343.32C70.6771 343.32 70.0481 343.555 69.5251 344.024C69.0131 344.493 68.7201 345.144 68.6451 345.976H74.1811ZM79.0631 343.656C79.3191 343.155 79.6821 342.765 80.1511 342.488C80.6311 342.211 81.2121 342.072 81.8951 342.072V343.576H81.5111C79.8791 343.576 79.0631 344.461 79.0631 346.232V351H77.6071V342.232H79.0631V343.656ZM84.3281 340.808C84.0501 340.808 83.8161 340.712 83.6241 340.52C83.4321 340.328 83.3361 340.093 83.3361 339.816C83.3361 339.539 83.4321 339.304 83.6241 339.112C83.8161 338.92 84.0501 338.824 84.3281 338.824C84.5941 338.824 84.8181 338.92 85.0001 339.112C85.1921 339.304 85.2881 339.539 85.2881 339.816C85.2881 340.093 85.1921 340.328 85.0001 340.52C84.8181 340.712 84.5941 340.808 84.3281 340.808ZM85.0321 342.232V351H83.5761V342.232H85.0321ZM86.9691 346.6C86.9691 345.693 87.1511 344.904 87.5131 344.232C87.8761 343.549 88.3771 343.021 89.0171 342.648C89.6681 342.275 90.4091 342.088 91.2411 342.088C92.3191 342.088 93.2041 342.349 93.8971 342.872C94.6011 343.395 95.0651 344.12 95.2891 345.048H93.7211C93.5721 344.515 93.2791 344.093 92.8411 343.784C92.4151 343.475 91.8811 343.32 91.2411 343.32C90.4091 343.32 89.7371 343.608 89.2251 344.184C88.7131 344.749 88.4571 345.555 88.4571 346.6C88.4571 347.656 88.7131 348.472 89.2251 349.048C89.7371 349.624 90.4091 349.912 91.2411 349.912C91.8811 349.912 92.4151 349.763 92.8411 349.464C93.2681 349.165 93.5611 348.739 93.7211 348.184H95.2891C95.0551 349.08 94.5851 349.8 93.8811 350.344C93.1771 350.877 92.2971 351.144 91.2411 351.144C90.4091 351.144 89.6681 350.957 89.0171 350.584C88.3771 350.211 87.8761 349.683 87.5131 349C87.1511 348.317 86.9691 347.517 86.9691 346.6Z" fill="#333333"/>
</g>
<defs>
<clipPath id="clip0_17506_26">
<rect width="596" height="398" fill="white"/>
</clipPath>
</defs>
</svg>
