<svg width="20" height="20" viewBox="0 0 20 20" fill="none" xmlns="http://www.w3.org/2000/svg">
<path fill-rule="evenodd" clip-rule="evenodd" d="M14.5134 6.27655C13.2602 6.27655 13.0175 6.87207 13.0175 7.74602V9.67313H15.7713C16.0336 9.67313 16.2372 9.90225 16.2063 10.1628L15.9333 12.4666C15.9071 12.687 15.7202 12.8531 15.4982 12.8531H13.0298L13.0175 20H17.3049C18.7933 20 19.9999 18.7934 19.9999 17.305V2.69504C19.9998 1.20659 18.7932 0 17.3048 0H2.69504C1.20664 0 0 1.20659 0 2.69504V17.3049C0 18.7933 1.20659 19.9999 2.69504 19.9999H9.90049L9.91277 12.853H8.05601C7.81471 12.853 7.61887 12.6579 7.61794 12.4166L7.60903 10.1129C7.6081 9.87025 7.80454 9.67308 8.04716 9.67308H9.90054V7.44709C9.90054 4.86384 11.4782 3.45724 13.7826 3.45724H15.6736C15.9155 3.45724 16.1117 3.65339 16.1117 3.89537V5.83789C16.1117 6.07978 15.9157 6.27587 15.6738 6.27602L14.5134 6.27655ZM8.90054 8.67308V7.44709C8.90054 5.94873 9.36283 4.67329 10.2745 3.77223C11.183 2.87422 12.4275 2.45724 13.7826 2.45724H15.6736C16.4677 2.45724 17.1117 3.10103 17.1117 3.89537V5.83789C17.1117 6.63196 16.4682 7.27553 15.6745 7.27602L14.5139 7.27655C14.2334 7.27655 14.1066 7.31483 14.0603 7.33548C14.0569 7.34513 14.0526 7.35904 14.0481 7.37819C14.0307 7.4516 14.0175 7.56697 14.0175 7.74602V8.67313H15.7713C16.6325 8.67313 17.3008 9.42508 17.1994 10.2805C17.1993 10.2806 17.1994 10.2805 17.1994 10.2805L16.9263 12.5843C16.8405 13.3079 16.227 13.8531 15.4982 13.8531H14.0281L14.0192 19H17.3049C18.241 19 18.9999 18.2411 18.9999 17.305V2.69507C18.9999 2.69506 18.9999 2.69508 18.9999 2.69507C18.9998 1.75889 18.2409 1 17.3048 1H2.69504C1.75891 1 1 1.75889 1 2.69504V17.3049C1 18.241 1.75888 18.9999 2.69504 18.9999H8.90221L8.91105 13.853H8.05601C7.26387 13.853 6.62099 13.2125 6.61794 12.4205L6.60904 10.1167C6.60599 9.32028 7.25081 8.67308 8.04716 8.67308H8.90054ZM14.068 7.31719C14.068 7.31718 14.0678 7.31762 14.0673 7.31844ZM14.0461 7.34253C14.0412 7.34683 14.0381 7.34854 14.0378 7.34833C14.0376 7.34811 14.04 7.34596 14.0461 7.34253Z" fill="#E4DFD3"/>
</svg>
