<svg width="20" height="20" viewBox="0 0 20 20" fill="none" xmlns="http://www.w3.org/2000/svg">
<path fill-rule="evenodd" clip-rule="evenodd" d="M15 1H5C2.79086 1 1 2.79086 1 5V15C1 17.2091 2.79086 19 5 19H15C17.2091 19 19 17.2091 19 15V5C19 2.79086 17.2091 1 15 1ZM5 0C2.23858 0 0 2.23858 0 5V15C0 17.7614 2.23858 20 5 20H15C17.7614 20 20 17.7614 20 15V5C20 2.23858 17.7614 0 15 0H5Z" fill="#E4DFD3"/>
<path fill-rule="evenodd" clip-rule="evenodd" d="M10 13C11.6569 13 13 11.6569 13 10C13 8.34315 11.6569 7 10 7C8.34315 7 7 8.34315 7 10C7 11.6569 8.34315 13 10 13ZM10 14C12.2091 14 14 12.2091 14 10C14 7.79086 12.2091 6 10 6C7.79086 6 6 7.79086 6 10C6 12.2091 7.79086 14 10 14Z" fill="#E4DFD3"/>
<path fill-rule="evenodd" clip-rule="evenodd" d="M15.5 5C15.7761 5 16 4.77614 16 4.5C16 4.22386 15.7761 4 15.5 4C15.2239 4 15 4.22386 15 4.5C15 4.77614 15.2239 5 15.5 5ZM15.5 6C16.3284 6 17 5.32843 17 4.5C17 3.67157 16.3284 3 15.5 3C14.6716 3 14 3.67157 14 4.5C14 5.32843 14.6716 6 15.5 6Z" fill="#E4DFD3"/>
</svg>
