<svg width="54" height="31" viewBox="0 0 54 31" fill="none" xmlns="http://www.w3.org/2000/svg">
<path fill-rule="evenodd" clip-rule="evenodd" d="M42.9816 25.9102L43.0186 25.5L42.9816 25.0898C42.775 22.7972 40.8468 21 38.5 21C36.1532 21 34.225 22.7972 34.0184 25.0898L33.9814 25.5L34.0184 25.9102C34.225 28.2028 36.1532 30 38.5 30C40.8468 30 42.775 28.2028 42.9816 25.9102ZM17.9816 25.9102L18.0186 25.5L17.9816 25.0898C17.775 22.7972 15.8468 21 13.5 21C11.1532 21 9.22497 22.7972 9.01839 25.0898L8.98142 25.5L9.01839 25.9102C9.22497 28.2028 11.1532 30 13.5 30C15.8468 30 17.775 28.2028 17.9816 25.9102ZM8.3877 1C7.42623 1 6.54995 1.55138 6.13389 2.41817L1.24619 12.6009C1.22594 12.6431 1.2069 12.6858 1.18909 12.7289C1.06442 13.031 1 13.355 1 13.6827V22.5C1 23.8807 2.11929 25 3.5 25H8.02242C8.27504 22.1968 10.631 20 13.5 20C16.369 20 18.725 22.1968 18.9776 25H33.0224C33.275 22.1968 35.631 20 38.5 20C41.369 20 43.725 22.1968 43.9776 25H50C51.3807 25 52.5 23.8807 52.5 22.5V16C52.5 14.6193 51.3807 13.5 50 13.5H26C24.067 13.5 22.5 11.933 22.5 10V3.5C22.5 2.11929 21.3807 1 20 1H8.3877ZM3.5 26C1.567 26 0 24.433 0 22.5V13.6827C0 13.1584 0.11779 12.6408 0.344669 12.1682L5.23237 1.98544C5.30518 1.83375 5.38806 1.68896 5.47998 1.55172C6.12341 0.591015 7.2099 0 8.3877 0H20C21.933 0 23.5 1.567 23.5 3.5V10C23.5 11.3807 24.6193 12.5 26 12.5H50C51.933 12.5 53.5 14.067 53.5 16V22.5C53.5 24.433 51.933 26 50 26H43.9776C43.725 28.8032 41.369 31 38.5 31C35.631 31 33.275 28.8032 33.0224 26H18.9776C18.725 28.8032 16.369 31 13.5 31C10.631 31 8.27504 28.8032 8.02242 26H3.5ZM12.598 5.51082L9.90051 12H12.598V5.51082ZM8.97711 11.6162L11.6746 5.12697C12.0944 4.11721 13.598 4.41729 13.598 5.51082V12C13.598 12.5523 13.1503 13 12.598 13H9.90051C9.18728 13 8.70334 12.2747 8.97711 11.6162ZM50 0C51.6569 0 53 1.34315 53 3V8C53 9.65685 51.6569 11 50 11H28C26.3431 11 25 9.65685 25 8V3C25 1.34315 26.3431 0 28 0H50ZM28 1C26.8954 1 26 1.89543 26 3V8C26 9.10457 26.8954 10 28 10H50C51.1046 10 52 9.10457 52 8V3C52 1.89543 51.1046 1 50 1H28Z" fill="#333333"/>
</svg>
